<?xml version="1.0" encoding="utf-8"?>
<!-- Generator: Adobe Illustrator 25.2.1, SVG Export Plug-In . SVG Version: 6.00 Build 0)  -->
<svg version="1.1" id="Layer_1" xmlns="http://www.w3.org/2000/svg" xmlns:xlink="http://www.w3.org/1999/xlink" x="0px" y="0px"
	 viewBox="0 0 79 78.2" style="enable-background:new 0 0 79 78.2;" xml:space="preserve">
<style type="text/css">
	.st0{fill-rule:evenodd;clip-rule:evenodd;fill:#E3CFD8;}
	.st1{fill-rule:evenodd;clip-rule:evenodd;fill:#FFFFFF;}
</style>
<path class="st0" d="M39.5,0c21.6,0.2,38.9,17.9,38.7,39.5C78,61.1,60.3,78.4,38.7,78.2C17.3,78,0,60.5,0,39.1
	C0.1,17.4,17.8-0.1,39.5,0C39.5,0,39.5,0,39.5,0z"/>
<path class="st1" d="M61.2,67.6v6.3c0,0.6-0.5,1.1-1.1,1.1c-0.6,0-1.1-0.5-1.1-1.1v-6.3c0-4.9-4-8.9-8.9-8.8c0,0,0,0,0,0
	c-2.3,0-4.5-1.2-5.7-3.1c-0.3-0.5-0.2-1.1,0.3-1.4c0,0,0,0,0,0c0.5-0.3,1.2-0.1,1.5,0.4c0.8,1.3,2.3,2.1,3.8,2.1
	C56.2,56.6,61.2,61.5,61.2,67.6C61.2,67.6,61.2,67.6,61.2,67.6z M43.3,59.4l-3.8,2.9l-6.5-5c1.4-1.1,2.3-2.8,2.5-4.6
	c1.3,0.4,2.7,0.6,4.1,0.6c7.9,0,14.3-6.3,14.3-14.2c0-0.1,0-7.4,0-7.5c0-0.6-0.5-1-1.1-1c-1,0.1-1.9,0-2.8-0.5c-1.3-0.9-2-2.3-2-3.9
	c0-0.6-0.5-1.1-1.1-1.1c-0.2,0-0.4,0.1-0.6,0.2c-4.5,3.2-9.7,5.2-15.2,6c-0.6,0.1-1,0.6-0.9,1.2c0.1,0.5,0.5,0.9,1.1,0.9
	c2.6-0.3,5.1-1,7.6-1.8c2.5-0.9,5-2.1,7.3-3.6c0.6,2.7,2.9,4.6,5.6,4.7v6.4c0,6.7-5.5,12.2-12.2,12.2c-6.7,0-12.2-5.5-12.2-12.2
	v-7.4c0-0.6-0.5-1.1-1.1-1.1c-0.6,0-1.1,0.5-1.1,1.1v7.5c0,5.5,3.2,10.5,8.2,12.8v0.3c0,2.5-2,4.4-4.5,4.4c0,0,0,0,0,0
	c-1.4,0-2.7,0.2-4,0.7l-0.7-0.5c-5.3-4.2-6.5-11.7-2.7-17.3c1.6-2.4,2.5-5.2,2.5-8.2v-5.7c0-6.8,5.6-12.2,12.3-12.2h6.4
	c6.8,0,12.3,5.4,12.3,12.2v5.7c0,2.9,0.9,5.7,2.5,8.1c3,4.4,2.9,10.2-0.1,14.6c-0.3,0.5-0.2,1.1,0.3,1.5c0,0,0,0,0,0
	c0.5,0.3,1.2,0.2,1.5-0.3c3.5-5.1,3.6-11.8,0.1-17c-1.4-2.1-2.1-4.5-2.1-7v-5.7c-0.1-8-6.5-14.4-14.5-14.3h-6.4
	c-8,0-14.4,6.4-14.5,14.3v5.7c0,2.5-0.7,4.9-2.1,7c-4.4,6.5-3,15.3,3.1,20.1c-3.1,2-5,5.5-5,9.2v6.3c0,0.6,0.5,1.1,1.1,1.1
	c0.6,0,1.1-0.5,1.1-1.1v-6.3c0-4.9,4-8.9,8.9-8.8c0,0,0,0,0,0c0.7,0,1.4-0.1,2.1-0.3l7.9,6.1c0.4,0.3,0.9,0.3,1.3,0l4.5-3.4
	c0.5-0.4,0.6-1,0.2-1.5c0,0,0,0,0,0C44.5,59.1,43.8,59,43.3,59.4L43.3,59.4L43.3,59.4z"/>
</svg>
