<?xml version="1.0" encoding="utf-8"?>
<!-- Generator: Adobe Illustrator 25.2.1, SVG Export Plug-In . SVG Version: 6.00 Build 0)  -->
<svg version="1.1" id="logo-svg" xmlns="http://www.w3.org/2000/svg" xmlns:xlink="http://www.w3.org/1999/xlink" x="0px" y="0px"
	 viewBox="0 0 102.8 89.6" style="enable-background:new 0 0 102.8 89.6;" xml:space="preserve">
<style type="text/css">
	.st0{fill:#FFFFFF;}
</style>
<g>
	<path class="st0" d="M94.8,8.1c-10.3-10.3-27-10.3-37.4,0l-6.1,6.1l-6.1-6.1C35-2.2,18.3-2.2,7.9,8.1c-10.3,10.3-10.3,27,0,37.4
		l6.1,6.1l3.2,3.2c0-4.1,1.5-7.8,3.9-10.7l-5.9-5.9C9,31.9,9,21.7,15.2,15.4c3-3,7.1-4.7,11.4-4.7s8.3,1.7,11.4,4.7l13.4,13.4
		l13.3-13.4c3-3,7.1-4.7,11.4-4.7s8.3,1.7,11.4,4.7c6.3,6.3,6.3,16.5,0,22.8L51.4,74.3c-6-6-11.5-11.5-16.9-17
		c-0.2-0.2-0.4-0.5-0.6-0.8C33,54.7,33,53,34.5,51.6s3.3-1.5,4.9-0.4c1.3,0.9,2.4,2.1,3.6,3.3c2.8,2.7,5.5,5.4,8.6,8.4l10.6-10.7
		c0.1-0.1,0.2-0.2,0.3-0.4c0,0,0.2-0.2,0.6-0.6l0.1-0.1c0.3-0.3,0.7-0.7,1.2-1.2l8-8c-5.3-3.1-11.3-2.5-16.2,1.6
		c-1.6,1.3-3,2.8-4.6,4.3c-2.2-1.9-4-3.6-5.9-5C39.8,38.6,32,39.2,27,44.3c-4.9,4.9-6.2,13.1-1.6,18.2c8.1,9.2,17,17.7,25.9,26.8
		c1.8-1.7,3.1-2.8,4.3-4.1c5.6-5.5,11-11.2,16.5-16.8l4.5-4.5l0,0l0,0l12.2-12.2l6.1-6.1C105.1,35.2,105.1,18.5,94.8,8.1z"/>
</g>
</svg>
