<?xml version="1.0" encoding="utf-8"?>
<!-- Generator: Adobe Illustrator 25.2.1, SVG Export Plug-In . SVG Version: 6.00 Build 0)  -->
<svg version="1.1" id="Layer_1" xmlns="http://www.w3.org/2000/svg" xmlns:xlink="http://www.w3.org/1999/xlink" x="0px" y="0px"
	 viewBox="0 0 311.1 124.4" style="enable-background:new 0 0 311.1 124.4;" xml:space="preserve">
<style type="text/css">
	.st0{fill:url(#SVGID_1_);}
	.st1{fill:#575656;stroke:#575656;stroke-miterlimit:10;}
	.st2{fill:#575656;}
</style>
<g>
	
		<linearGradient id="SVGID_1_" gradientUnits="userSpaceOnUse" x1="-1.806862e-03" y1="-33.1289" x2="142.4968" y2="-33.1289" gradientTransform="matrix(1 0 0 1 0 95)">
		<stop  offset="0" style="stop-color:#B94F98"/>
		<stop  offset="0.9138" style="stop-color:#E61E5C"/>
	</linearGradient>
	<path class="st0" d="M131.7,10.7c-14.3-14.3-37.6-14.3-52.1,0l-8.5,8.5l-8.5-8.5c-14.2-14.3-37.4-14.3-51.9,0
		c-14.3,14.3-14.3,37.6,0,52.1l8.5,8.5l4.5,4.5c0-5.7,2.1-10.9,5.4-14.9l-8.2-8.2c-8.6-8.8-8.6-23,0-31.7c4.2-4.2,9.9-6.5,15.9-6.5
		c6,0,11.6,2.4,15.9,6.5l18.7,18.7l18.5-18.7c4.2-4.2,9.9-6.5,15.9-6.5c6,0,11.6,2.4,15.9,6.5c8.8,8.8,8.8,23,0,31.7l-50.3,50.3
		c-8.4-8.4-16-16-23.5-23.7c-0.3-0.3-0.6-0.7-0.8-1.1c-1.3-2.5-1.3-4.9,0.8-6.8s4.6-2.1,6.8-0.6c1.8,1.3,3.3,2.9,5,4.6
		c3.9,3.8,7.7,7.5,12,11.7l14.8-14.9c0.1-0.1,0.3-0.3,0.4-0.6c0,0,0.3-0.3,0.8-0.8l0.1-0.1c0.4-0.4,1-1,1.7-1.7l11.1-11.1
		C93.2,53.5,84.8,54.3,78,60c-2.2,1.8-4.2,3.9-6.4,6c-3.1-2.6-5.6-5-8.2-7c-8.2-5.8-19.1-5-26,2.1c-6.8,6.8-8.6,18.2-2.2,25.3
		c11.3,12.8,23.7,24.6,36.1,37.3c2.5-2.4,4.3-3.9,6-5.7c7.8-7.7,15.3-15.6,23-23.4l6.3-6.3l0,0l0,0l17-17l8.5-8.5
		C146.1,48.5,146.1,25.2,131.7,10.7z"/>
</g>
<g>
	<path class="st1" d="M139,106.8v-9.3h4.6v16.4c0,1.3-0.1,2.6-0.4,3.6c-0.3,1-0.6,1.9-1.1,2.7c-0.4,0.8-0.9,1.3-1.4,1.9
		c-0.5,0.4-1.1,0.9-1.7,1.2c-1.3,0.7-2.8,1.1-4.5,1.1c-1.8,0-3.3-0.4-4.6-1.1c-0.5-0.3-1.2-0.7-1.7-1.2s-1.1-1.1-1.5-1.8
		c-0.4-0.7-0.8-1.6-1.1-2.6c-0.3-1-0.4-2.2-0.4-3.6s0.1-2.6,0.4-3.6c0.3-1,0.5-1.9,1-2.7c0.4-0.7,0.9-1.3,1.3-1.9
		c0.5-0.5,1.1-0.9,1.6-1.2c1.2-0.7,2.7-1.2,4.3-1.2c0.8,0.1,1.6,0.3,2.3,0.6c0.6,0.3,1.3,0.7,2,1.3c0.7,0.6,1.2,1.4,1.7,2.5
		L139,106.8z M134.5,119.8c1,0,1.8-0.2,2.3-0.6c0.6-0.4,1.1-0.9,1.3-1.4c0.4-0.6,0.5-1.2,0.6-1.9c0.1-0.7,0.2-1.3,0.2-1.9
		c0-0.5-0.1-1.2-0.2-1.9c-0.1-0.7-0.4-1.3-0.6-1.9c-0.4-0.6-0.8-1.1-1.3-1.4c-0.6-0.4-1.3-0.6-2.3-0.6s-1.8,0.2-2.3,0.6
		c-0.6,0.4-1.1,0.9-1.3,1.4c-0.3,0.6-0.5,1.2-0.6,1.9c-0.1,0.7-0.2,1.3-0.2,1.9c0,0.5,0.1,1.2,0.2,1.9c0.1,0.7,0.4,1.3,0.6,1.9
		c0.4,0.6,0.8,1.1,1.3,1.4C132.8,119.5,133.6,119.8,134.5,119.8z"/>
	<path class="st1" d="M146.1,113.9c0-1.3,0.1-2.6,0.4-3.6c0.3-1,0.6-1.9,1.1-2.7c0.4-0.7,0.9-1.3,1.5-1.9c0.5-0.5,1.2-0.9,1.7-1.2
		c1.3-0.7,2.9-1.2,4.6-1.2c1.7,0.1,3.3,0.4,4.6,1.2c0.5,0.4,1.2,0.7,1.7,1.2c0.5,0.5,1.1,1.2,1.5,1.9c0.4,0.7,0.8,1.6,1.1,2.7
		c0.3,1,0.4,2.2,0.4,3.6c0,1.3-0.2,2.6-0.4,3.6c-0.3,1-0.6,1.9-1.1,2.6c-0.4,0.7-0.9,1.3-1.5,1.8c-0.6,0.4-1.2,0.9-1.7,1.2
		c-1.3,0.7-2.8,1.1-4.6,1.1s-3.3-0.4-4.6-1.1c-0.5-0.3-1.2-0.7-1.7-1.2s-1.1-1.1-1.5-1.8c-0.4-0.7-0.8-1.6-1.1-2.6
		C146.3,116.5,146.1,115.2,146.1,113.9z M155.3,108.1c-1,0-1.8,0.2-2.3,0.6c-0.6,0.4-1.1,0.9-1.3,1.4c-0.3,0.6-0.5,1.2-0.6,1.9
		c-0.1,0.7-0.2,1.3-0.2,1.9s0.1,1.2,0.2,1.9c0.1,0.7,0.4,1.3,0.6,1.9c0.4,0.6,0.8,1.1,1.3,1.4c0.6,0.4,1.3,0.6,2.3,0.6
		c1,0,1.8-0.2,2.3-0.6c0.6-0.4,1.1-0.9,1.3-1.4c0.4-0.6,0.5-1.2,0.6-1.9c0.1-0.7,0.2-1.3,0.2-1.9s-0.1-1.2-0.2-1.9
		c-0.1-0.7-0.4-1.3-0.6-1.9c-0.3-0.6-0.8-1.1-1.3-1.4C157.1,108.3,156.3,108.1,155.3,108.1z"/>
	<path class="st1" d="M175.6,124.2c-0.1,0-0.4,0-0.8,0c-0.4,0-1.1-0.2-1.7-0.4c-0.6-0.2-1.3-0.5-2-0.9c-0.7-0.4-1.4-1-2-1.8
		c-0.6-0.8-1.2-1.8-1.5-2.9c-0.4-1.2-0.6-2.7-0.6-4.4v-9.8h4.8v9.8c0,0.5,0.1,1.2,0.2,1.8c0.1,0.6,0.3,1.2,0.6,1.6
		c0.3,0.5,0.7,0.9,1.2,1.2c0.5,0.4,1.2,0.4,2,0.4c0.9,0,1.5-0.2,2-0.4c0.5-0.4,0.9-0.7,1.2-1.2c0.3-0.5,0.4-1.1,0.6-1.6
		c0.1-0.6,0.2-1.2,0.2-1.8v-9.8h4.8v9.8c0,1.8-0.2,3.2-0.6,4.4c-0.4,1.2-0.9,2.1-1.5,2.9c-0.6,0.8-1.3,1.4-2,1.8
		c-0.7,0.4-1.4,0.7-2,0.9c-0.6,0.2-1.2,0.3-1.7,0.4C175.9,124.1,175.6,124.2,175.6,124.2z"/>
	<path class="st1" d="M190.7,108c0.4-1.1,1-2,1.7-2.5c0.7-0.6,1.3-1,2-1.3c0.7-0.4,1.5-0.5,2.3-0.6c1.6,0.1,3,0.4,4.3,1.2
		c0.5,0.4,1.1,0.7,1.6,1.2c0.5,0.5,1,1.2,1.3,1.9c0.4,0.7,0.7,1.6,1,2.7c0.3,1,0.4,2.2,0.4,3.6s-0.2,2.6-0.4,3.6
		c-0.3,1-0.6,1.9-1.1,2.6c-0.4,0.7-0.9,1.3-1.5,1.8c-0.5,0.4-1.2,0.9-1.7,1.2c-1.3,0.7-2.8,1.1-4.6,1.1c-1.7,0-3.2-0.4-4.5-1.1
		c-0.5-0.3-1.2-0.7-1.7-1.2s-1.1-1.1-1.4-1.9c-0.4-0.7-0.8-1.6-1.1-2.7c-0.3-1-0.4-2.2-0.4-3.6V97.5h4.6v9.3L190.7,108z M196,119.8
		c1,0,1.8-0.2,2.3-0.6c0.6-0.4,1.1-0.9,1.3-1.4c0.4-0.6,0.5-1.2,0.6-1.9c0.1-0.7,0.2-1.3,0.2-1.9c0-0.5-0.1-1.2-0.2-1.9
		c-0.1-0.7-0.4-1.3-0.6-1.9c-0.3-0.6-0.8-1.1-1.3-1.4c-0.6-0.4-1.3-0.6-2.3-0.6c-1,0-1.8,0.2-2.3,0.6c-0.6,0.4-1.1,0.9-1.3,1.4
		c-0.4,0.6-0.5,1.2-0.6,1.9c-0.1,0.7-0.2,1.3-0.2,1.9c0,0.5,0.1,1.2,0.2,1.9c0.1,0.7,0.4,1.3,0.6,1.9c0.4,0.6,0.8,1.1,1.3,1.4
		C194.3,119.5,195.1,119.8,196,119.8z"/>
	<path class="st1" d="M212.5,97.5v26.3h-4.8V97.5H212.5z"/>
	<path class="st1" d="M233.5,111.4c0.1,0.4,0.1,0.8,0.2,1.2c0,0.4,0.1,0.9,0.1,1.3v0.7H220c0.1,0.4,0.1,0.9,0.2,1.3
		c0.1,0.4,0.2,0.9,0.4,1.3c0.3,0.7,0.7,1.2,1.3,1.8c0.6,0.5,1.4,0.8,2.5,0.8c1.1,0,1.9-0.3,2.5-0.8c0.6-0.5,1.1-1.2,1.3-1.8h5.1
		c-0.2,0.9-0.5,1.7-0.9,2.4s-0.8,1.2-1.2,1.8c-0.4,0.5-1,0.9-1.4,1.2c-0.5,0.4-1.1,0.6-1.5,0.8c-1.2,0.4-2.5,0.7-3.8,0.7
		c-1.8,0-3.3-0.4-4.6-1.1c-0.5-0.3-1.2-0.7-1.7-1.2s-1.1-1.1-1.5-1.8c-0.4-0.7-0.8-1.6-1.1-2.6c-0.3-1-0.4-2.2-0.4-3.6
		c0-1.3,0.1-2.6,0.4-3.6c0.3-1,0.6-1.9,1.1-2.7c0.4-0.7,0.9-1.3,1.5-1.9c0.5-0.5,1.2-0.9,1.7-1.2c1.3-0.7,2.9-1.2,4.6-1.2
		c1.4,0.1,2.8,0.4,4,0.9c0.5,0.3,1.1,0.5,1.6,0.9c0.5,0.4,1.1,0.9,1.5,1.4c0.4,0.5,0.9,1.2,1.2,2C233,109.5,233.3,110.4,233.5,111.4
		z M228.5,111.4c-0.1-0.4-0.3-0.8-0.4-1.2s-0.4-0.8-0.8-1.2s-0.7-0.6-1.2-0.8c-0.4-0.2-1-0.3-1.6-0.3c-0.6,0-1.2,0.1-1.6,0.3
		c-0.4,0.2-0.9,0.4-1.2,0.8s-0.6,0.7-0.8,1.2s-0.4,0.8-0.4,1.2H228.5z"/>
	<path class="st2" d="M241.8,108c0.4-1.1,1-2,1.7-2.5c0.7-0.6,1.3-1,2-1.3c0.7-0.4,1.5-0.5,2.3-0.6c1.6,0.1,3,0.4,4.3,1.2
		c0.5,0.4,1.1,0.7,1.6,1.2c0.5,0.5,1,1.2,1.3,1.9c0.4,0.7,0.7,1.6,1,2.7c0.3,1,0.4,2.2,0.4,3.6s-0.2,2.6-0.4,3.6
		c-0.3,1-0.6,1.9-1.1,2.6c-0.4,0.7-0.9,1.3-1.5,1.8c-0.5,0.4-1.2,0.9-1.7,1.2c-1.3,0.7-2.8,1.1-4.6,1.1c-1.7,0-3.2-0.4-4.5-1.1
		c-0.5-0.3-1.2-0.7-1.7-1.2s-1.1-1.1-1.4-1.9c-0.4-0.7-0.8-1.6-1.1-2.7c-0.3-1-0.4-2.2-0.4-3.6V97.5h4.6v9.3L241.8,108z
		 M247.2,119.8c1,0,1.8-0.2,2.3-0.6c0.6-0.4,1.1-0.9,1.3-1.4c0.4-0.6,0.5-1.2,0.6-1.9c0.1-0.7,0.2-1.3,0.2-1.9
		c0-0.5-0.1-1.2-0.2-1.9c-0.1-0.7-0.4-1.3-0.6-1.9c-0.3-0.6-0.8-1.1-1.3-1.4c-0.6-0.4-1.3-0.6-2.3-0.6c-1,0-1.8,0.2-2.3,0.6
		c-0.6,0.4-1.1,0.9-1.3,1.4c-0.4,0.6-0.5,1.2-0.6,1.9c-0.1,0.7-0.2,1.3-0.2,1.9c0,0.5,0.1,1.2,0.2,1.9c0.1,0.7,0.4,1.3,0.6,1.9
		c0.4,0.6,0.8,1.1,1.3,1.4C245.4,119.5,246.2,119.8,247.2,119.8z"/>
	<path class="st2" d="M277.1,111.4c0.1,0.4,0.1,0.8,0.2,1.2c0,0.4,0.1,0.9,0.1,1.3v0.7h-13.7c0.1,0.4,0.1,0.9,0.2,1.3
		c0.1,0.4,0.2,0.9,0.4,1.3c0.3,0.7,0.7,1.2,1.3,1.8c0.6,0.5,1.4,0.8,2.5,0.8c1.1,0,1.9-0.3,2.5-0.8c0.6-0.5,1.1-1.2,1.3-1.8h5.1
		c-0.2,0.9-0.5,1.7-0.9,2.4s-0.8,1.2-1.2,1.8c-0.4,0.5-1,0.9-1.4,1.2c-0.5,0.4-1.1,0.6-1.5,0.8c-1.2,0.4-2.5,0.7-3.8,0.7
		c-1.8,0-3.3-0.4-4.6-1.1c-0.5-0.3-1.2-0.7-1.7-1.2c-0.5-0.4-1.1-1.1-1.5-1.8c-0.4-0.7-0.8-1.6-1.1-2.6c-0.3-1-0.4-2.2-0.4-3.6
		c0-1.3,0.1-2.6,0.4-3.6c0.3-1,0.6-1.9,1.1-2.7c0.4-0.7,0.9-1.3,1.5-1.9c0.5-0.5,1.2-0.9,1.7-1.2c1.3-0.7,2.9-1.2,4.6-1.2
		c1.4,0.1,2.8,0.4,4,0.9c0.5,0.3,1.1,0.5,1.6,0.9c0.5,0.4,1.1,0.9,1.5,1.4c0.4,0.5,0.9,1.2,1.2,2C276.7,109.5,277,110.4,277.1,111.4
		z M272.2,111.4c-0.1-0.4-0.3-0.8-0.4-1.2c-0.2-0.4-0.4-0.8-0.8-1.2s-0.7-0.6-1.2-0.8c-0.4-0.2-1-0.3-1.6-0.3
		c-0.6,0-1.2,0.1-1.6,0.3c-0.4,0.2-0.9,0.4-1.2,0.8s-0.6,0.7-0.8,1.2c-0.2,0.4-0.4,0.8-0.4,1.2H272.2z"/>
	<path class="st2" d="M298.1,123.8h-4.6V121l0.9-1.2c-0.4,1.1-1,2-1.7,2.5s-1.3,1-2,1.2c-0.7,0.3-1.5,0.4-2.3,0.5
		c-1.6,0-3-0.4-4.3-1.1c-0.5-0.3-1.1-0.7-1.6-1.2c-0.5-0.4-1-1.1-1.3-1.8c-0.4-0.7-0.7-1.6-1-2.6s-0.4-2.2-0.4-3.6s0.1-2.6,0.4-3.6
		c0.3-1,0.6-1.9,1.1-2.7c0.4-0.7,0.9-1.3,1.5-1.9c0.5-0.5,1.2-0.9,1.7-1.2c1.3-0.7,2.9-1.2,4.6-1.2c1.6,0,3,0.3,4.2,0.7
		c1.2,0.4,2,1.2,2.8,2c0.7,0.9,1.2,2,1.6,3.3c0.4,1.2,0.5,2.8,0.5,4.4v9.9H298.1z M289,108.1c-1,0-1.8,0.2-2.3,0.6
		c-0.6,0.4-1.1,0.9-1.3,1.4c-0.3,0.6-0.5,1.2-0.6,1.9c-0.1,0.7-0.2,1.3-0.2,1.9s0.1,1.2,0.2,1.9c0.1,0.7,0.4,1.3,0.6,1.9
		c0.4,0.6,0.8,1.1,1.3,1.4c0.6,0.4,1.3,0.6,2.3,0.6s1.8-0.2,2.3-0.6c0.6-0.4,1.1-0.9,1.3-1.4c0.4-0.6,0.5-1.2,0.6-1.9
		c0.1-0.7,0.2-1.3,0.2-1.9c0-0.7-0.1-1.4-0.2-2c-0.1-0.7-0.3-1.3-0.6-1.9c-0.3-0.5-0.7-1-1.3-1.3C290.7,108.3,289.9,108.1,289,108.1
		z"/>
	<path class="st2" d="M305.4,108.7v8.7c0.1,0.4,0.2,0.6,0.4,0.9c0.2,0.2,0.4,0.4,0.8,0.6c0.4,0.2,0.7,0.3,1.2,0.3h2.9v4.7H306
		c-1-0.1-2-0.4-2.8-0.9c-0.7-0.4-1.3-1-1.9-1.8c-0.5-0.8-0.8-1.9-0.8-3.2V98.7h4.8v5.3h4.4v4.6H305.4z"/>
</g>
</svg>
