<svg id="Layer_1" data-name="Layer 1" xmlns="http://www.w3.org/2000/svg" xmlns:xlink="http://www.w3.org/1999/xlink" viewBox="0 0 2394.93 1404.75"><defs><style>.cls-1,.cls-2{fill:#575756;}.cls-1{stroke:#575756;stroke-miterlimit:10;stroke-width:1.5px;}.cls-3{fill:url(#linear-gradient);}</style><linearGradient id="linear-gradient" x1="740.54" y1="420.08" x2="1709.29" y2="420.08" gradientUnits="userSpaceOnUse"><stop offset="0" stop-color="#b94f98"/><stop offset="0.91" stop-color="#e61e5c"/></linearGradient></defs><path class="cls-1" d="M182.46,1173.72a66,66,0,0,0-10.57-12q-13-11.32-25.66-16.86a104.44,104.44,0,0,0-30.17-7.55q-31.2,1-55.32,15.11a99.81,99.81,0,0,0-20.37,15.6A98.54,98.54,0,0,0,22.75,1192a140.46,140.46,0,0,0-12.56,34C7,1239,5.4,1254.29,5.4,1271.69s1.68,32.7,5,45.8,7.79,24.32,13.32,33.69a92.05,92.05,0,0,0,19.12,23.39,124.88,124.88,0,0,0,21.89,15.36q26.13,13.59,59.84,14.07,32.71-.48,58.85-14.07a117.65,117.65,0,0,0,21.63-15.36A93,93,0,0,0,224,1350.93q8.29-14.33,13.32-34t5-45.77V1059.4H182.46Zm-2,122.13a72.64,72.64,0,0,1-8.28,24.39,54.17,54.17,0,0,1-17.62,18.87q-11.31,7.58-29.93,7.55t-29.93-7.55a51.77,51.77,0,0,1-17.35-18.87,76,76,0,0,1-8-24.39,146,146,0,0,1,0-48.29,75.81,75.81,0,0,1,8-24.42,51.9,51.9,0,0,1,17.35-18.86q11.32-7.53,29.93-7.56t29.93,7.56a54.31,54.31,0,0,1,17.62,18.86,72.51,72.51,0,0,1,8.28,24.42,158.26,158.26,0,0,1,2,24.13A158.63,158.63,0,0,1,180.44,1295.85Z" transform="translate(-4.65)"/><path class="cls-1" d="M493.56,1192a93.9,93.9,0,0,0-19.12-23.9,118.37,118.37,0,0,0-21.87-15.6q-26.15-14.1-59.37-15.11-33.68,1-59.84,15.11a118.48,118.48,0,0,0-21.89,15.6,94.55,94.55,0,0,0-19.12,23.9q-8.3,14.33-13.32,34c-3.35,13.08-5,28.37-5,45.77s1.68,32.7,5,45.8,7.79,24.32,13.32,33.69a92.05,92.05,0,0,0,19.12,23.39,125.25,125.25,0,0,0,21.89,15.36q26.13,13.59,59.84,14.07,33.21-.48,59.37-14.07a125.13,125.13,0,0,0,21.87-15.36,91.43,91.43,0,0,0,19.12-23.39q8.29-14.06,13.57-33.69t5.28-45.8c0-17.4-1.74-32.69-5.28-45.77A140.33,140.33,0,0,0,493.56,1192Zm-45,103.88a76,76,0,0,1-8.06,24.39,51.57,51.57,0,0,1-17.34,18.87q-11.33,7.58-29.94,7.55t-29.91-7.55a51.83,51.83,0,0,1-17.37-18.87,77,77,0,0,1-8-24.39,146,146,0,0,1,0-48.29,76.79,76.79,0,0,1,8-24.42,52,52,0,0,1,17.37-18.86q11.32-7.53,29.91-7.56t29.94,7.56a51.7,51.7,0,0,1,17.34,18.86,75.84,75.84,0,0,1,8.06,24.42,145.31,145.31,0,0,1,0,48.29Z" transform="translate(-4.65)"/><path class="cls-1" d="M706.57,1269.68a131.83,131.83,0,0,1-2,22.63,63.22,63.22,0,0,1-7.55,21.14,45.32,45.32,0,0,1-15.58,15.85q-10.08,6.3-26.66,6.3t-26.66-6.3a45.24,45.24,0,0,1-15.61-15.85,63.21,63.21,0,0,1-7.54-21.14,131.86,131.86,0,0,1-2-22.63V1143.9H541.58v125.78q0,33.72,7.82,56.6t19.85,38q12.09,15.11,26.15,23.14a128,128,0,0,0,26.66,11.82,94.59,94.59,0,0,0,21.89,4.28c6.21.34,9.81.49,10.82.49s4.59-.15,10.81-.49a94.64,94.64,0,0,0,21.87-4.28,127.78,127.78,0,0,0,26.66-11.82q14.07-8,26.15-23.14t19.88-38q7.79-22.87,7.79-56.6V1143.9H706.57Z" transform="translate(-4.65)"/><path class="cls-1" d="M1020.18,1192a98.41,98.41,0,0,0-17.59-23.9,100.4,100.4,0,0,0-20.38-15.6q-24.12-14.1-55.34-15.11a104.6,104.6,0,0,0-30.17,7.55q-12.56,5.52-25.65,16.86a66.45,66.45,0,0,0-10.57,12V1059.4H800.64v211.8q0,26.16,5,45.77t13.35,34a93.14,93.14,0,0,0,18.85,23.64,118.61,118.61,0,0,0,21.62,15.36q25.65,13.59,58.85,14.07,33.23-.48,59.37-14.07a125.13,125.13,0,0,0,21.87-15.36,91.43,91.43,0,0,0,19.12-23.39q8.3-14.06,13.57-33.69t5.29-45.8c0-17.4-1.6-32.69-4.78-45.77S1025.37,1201.52,1020.18,1192Zm-46.52,103.88a75.75,75.75,0,0,1-8.06,24.39,51.57,51.57,0,0,1-17.34,18.87q-11.32,7.58-29.94,7.55t-29.92-7.55a53.83,53.83,0,0,1-17.6-18.87,72.69,72.69,0,0,1-8.31-24.39,146,146,0,0,1,0-48.29,72.55,72.55,0,0,1,8.31-24.42,54,54,0,0,1,17.6-18.86q11.31-7.53,29.92-7.56t29.94,7.56a51.7,51.7,0,0,1,17.34,18.86,75.6,75.6,0,0,1,8.06,24.42,145.31,145.31,0,0,1,0,48.29Z" transform="translate(-4.65)"/><rect class="cls-1" x="1065.59" y="1059.4" width="61.36" height="339.6"/><path class="cls-1" d="M1403.71,1271.69c0-6-.24-11.73-.76-17.11s-1.1-10.57-1.77-15.58a130.39,130.39,0,0,0-9.8-34.45,118.72,118.72,0,0,0-15.58-25.67,96.44,96.44,0,0,0-19.13-18.11,121.58,121.58,0,0,0-20.37-11.83,140.89,140.89,0,0,0-51.8-11.58q-33.7,1-59.86,15.11a118,118,0,0,0-21.87,15.6,93.64,93.64,0,0,0-19.12,23.9q-8.3,14.33-13.34,34c-3.34,13.08-5,28.37-5,45.77s1.68,32.7,5,45.8,7.81,24.32,13.34,33.69a91,91,0,0,0,19.12,23.39,124.75,124.75,0,0,0,21.87,15.36q26.16,13.59,59.86,14.07a132.37,132.37,0,0,0,48.78-9,135.11,135.11,0,0,0,19.62-10.33,91.76,91.76,0,0,0,18.86-15.82,118.94,118.94,0,0,0,16.1-22.64,116.93,116.93,0,0,0,11.32-30.71h-65.39a63.2,63.2,0,0,1-17.1,23.16q-11.58,10.07-32.19,10.06t-32.19-10.06a62.75,62.75,0,0,1-17.1-23.16,81.21,81.21,0,0,1-5-17.35q-1.5-8.8-2.51-17.35h176ZM1231.18,1239a77.89,77.89,0,0,1,6-16.09,55.76,55.76,0,0,1,10.56-14.61,47.34,47.34,0,0,1,15.59-10.29,60.59,60.59,0,0,1,42.24,0,47.49,47.49,0,0,1,15.6,10.29,52.1,52.1,0,0,1,10.33,14.61,129.61,129.61,0,0,1,6.27,16.09Z" transform="translate(-4.65)"/><path class="cls-2" d="M1509.8,1194.21q8.57-21.12,21.63-32.44t25.65-16.86a104.6,104.6,0,0,1,30.17-7.55q31.21,1,55.34,15.11a100.4,100.4,0,0,1,20.38,15.6,98.41,98.41,0,0,1,17.59,23.9q7.8,14.33,12.59,34c3.17,13.08,4.76,28.37,4.76,45.77s-1.74,32.7-5.28,45.8-8,24.32-13.56,33.69a91.66,91.66,0,0,1-19.13,23.39,125.5,125.5,0,0,1-21.87,15.36q-26.19,13.59-59.37,14.07-33.17-.48-58.85-14.07a118.27,118.27,0,0,1-21.62-15.36,93.14,93.14,0,0,1-18.85-23.64q-8.31-14.33-13.35-34t-5-45.77V1059.4h59.84v120.24Zm68.9,152.45q18.61,0,29.94-7.55a51.68,51.68,0,0,0,17.35-18.87,76.22,76.22,0,0,0,8-24.39,145.31,145.31,0,0,0,0-48.29,76.07,76.07,0,0,0-8-24.42,51.81,51.81,0,0,0-17.35-18.86q-11.33-7.53-29.94-7.56t-29.93,7.56a54,54,0,0,0-17.59,18.86,72.77,72.77,0,0,0-8.31,24.42,146,146,0,0,0,0,48.29,72.92,72.92,0,0,0,8.31,24.39,53.89,53.89,0,0,0,17.59,18.87Q1560.09,1346.69,1578.7,1346.66Z" transform="translate(-4.65)"/><path class="cls-2" d="M1965,1239c.68,5,1.26,10.24,1.77,15.58s.74,11.08.74,17.11v9.07h-176q1,8.55,2.53,17.35a81.12,81.12,0,0,0,5,17.35,63.42,63.42,0,0,0,17.1,23.16q11.6,10.07,32.19,10.06t32.2-10.06a63.09,63.09,0,0,0,17.1-23.16H1963a116.23,116.23,0,0,1-11.32,30.71,120.23,120.23,0,0,1-16.08,22.64,92.61,92.61,0,0,1-18.87,15.82,137.12,137.12,0,0,1-19.61,10.33,132.48,132.48,0,0,1-48.81,9q-33.67-.48-59.83-14.07a124.94,124.94,0,0,1-21.9-15.36,91.84,91.84,0,0,1-19.12-23.39q-8.29-14.06-13.31-33.69t-5-45.8c0-17.4,1.68-32.69,5-45.77a133,133,0,0,1,13.31-34,94.5,94.5,0,0,1,19.12-23.9,118.21,118.21,0,0,1,21.9-15.6q26.13-14.1,59.83-15.11a140.8,140.8,0,0,1,51.81,11.58,121.19,121.19,0,0,1,20.37,11.83,96.4,96.4,0,0,1,19.12,18.11,118,118,0,0,1,15.6,25.67Q1962,1219.39,1965,1239Zm-63.37,0a126.7,126.7,0,0,0-6.29-16.09A51.27,51.27,0,0,0,1885,1208.3a47.2,47.2,0,0,0-15.58-10.29,60.59,60.59,0,0,0-42.24,0,47.64,47.64,0,0,0-15.61,10.29,56,56,0,0,0-10.56,14.61,76.72,76.72,0,0,0-6,16.09Z" transform="translate(-4.65)"/><path class="cls-2" d="M2235.62,1399h-59.86v-35.23l11-14.6q-8.52,21.15-21.62,32.2t-25.65,16.1a102.45,102.45,0,0,1-30.18,6.54q-31.2-.48-55.32-14.07a104.74,104.74,0,0,1-20.37-15.36,95.16,95.16,0,0,1-17.62-23.39q-7.8-14.06-12.56-33.69t-4.79-45.8c0-17.4,1.68-32.69,5-45.77s7.79-24.4,13.31-34a95,95,0,0,1,19.13-23.9,117.82,117.82,0,0,1,21.89-15.6q26.13-14.1,59.83-15.11,31.71,0,53.82,9.33a93.14,93.14,0,0,1,36.47,26.66q14.34,17.34,20.89,42.25t6.54,56.62ZM2117.9,1196.72q-18.58,0-29.93,7.56a52,52,0,0,0-17.34,18.86,75.81,75.81,0,0,0-8,24.42,146,146,0,0,0,0,48.29,76,76,0,0,0,8,24.39,51.91,51.91,0,0,0,17.34,18.87q11.33,7.58,29.93,7.55t29.94-7.55a54.26,54.26,0,0,0,17.62-18.87,72.64,72.64,0,0,0,8.28-24.39,159.92,159.92,0,0,0,2-24.16,207.88,207.88,0,0,0-1.75-26.91,70.69,70.69,0,0,0-7.57-24.14,43.13,43.13,0,0,0-17.35-17.36Q2137.54,1196.73,2117.9,1196.72Z" transform="translate(-4.65)"/><path class="cls-2" d="M2329.66,1203.79V1316a28.74,28.74,0,0,0,5.53,11.09,37.15,37.15,0,0,0,9.81,7.54c4.18,2.35,9.64,3.52,16.33,3.52h38.25V1399h-61.37a86.59,86.59,0,0,1-35.21-11.08q-13.1-7.53-23.89-22.37t-10.81-41v-249h61.36v68.41h57.85v59.89Z" transform="translate(-4.65)"/><path class="cls-3" d="M1636,73.27c-97.69-97.69-256.08-97.69-353.8,0l-57.31,57.34-57.33-57.34c-97.72-97.69-256.1-97.69-353.78,0s-97.7,256.13,0,353.88l57.31,57.33,30.69,30.68a155.29,155.29,0,0,1,37.22-101L882.91,358c-59.42-59.46-59.42-156.2,0-215.63a152.45,152.45,0,0,1,215.6,0l126.41,126.44L1351.35,142.4a152.42,152.42,0,0,1,215.57,0c59.43,59.43,59.42,156.17,0,215.63L1225.27,699.75c-57-57.24-108.68-109.17-160.34-161.17a31.5,31.5,0,0,1-5.48-7.4c-8.54-16.66-8.54-32.86,5.54-46.39s30.87-14.49,46.32-3.64c12.41,8.73,23,20.27,33.92,31,26.11,25.48,52,51.2,81,79.85l101-101c1-1.11,2.11-2.21,3.15-3.32,0,0,2.09-2.26,5.84-6,.28-.27.56-.57.84-.84,2.95-2.95,6.86-6.77,11.45-11.11l76.21-76.2c-50.68-29.37-108-24.08-154.19,14.44-14.88,12.43-28.61,26.2-43.82,40.23-21.22-18.26-37.55-34.49-56-47.74-55.94-40.14-129.71-33.81-177,14-46.23,46.7-58.5,123.87-15.44,172.45,77.11,86.94,161.32,167.55,245.09,253.38,17-15.83,29.4-26.77,41.14-38.44,52.78-52.54,103.78-106.5,156.25-159.3L1463.24,600v0h0L1578.7,484.48,1636,427.14C1733.71,329.4,1733.71,171,1636,73.27Z" transform="translate(-4.65)"/></svg>