<svg xmlns="http://www.w3.org/2000/svg" width="45.81" height="47.781" viewBox="0 0 45.81 47.781">
  <defs>
    <style>
      .cls-1 {
        fill: #999;
        fill-rule: evenodd;
      }
    </style>
  </defs>
  <path id="Forma_1" data-name="Forma 1" class="cls-1" d="M1829.94,582.624a0.15,0.15,0,0,0-.14-0.139l-1.05-.069-0.42-.9c0-.07-0.07-0.07-0.14-0.07a0.244,0.244,0,0,0-.14.07l-0.49.9-0.98.139a0.15,0.15,0,0,0-.14.139,0.252,0.252,0,0,0,.07.208l0.63,0.627-0.21.973c0,0.069,0,.139.07,0.139a0.226,0.226,0,0,0,.21,0l0.91-.487,0.91,0.487h0.14a0.139,0.139,0,0,0,.07-0.139l-0.14-.973,0.77-.7A0.254,0.254,0,0,0,1829.94,582.624Zm-33.93,7.093-0.84-.487-0.14-.974a0.15,0.15,0,0,0-.14-0.139,0.257,0.257,0,0,0-.21.07l-0.7.765-0.98-.139c-0.07,0-.14,0-0.14.07a0.129,0.129,0,0,0,0,.208l0.42,0.765-0.49.9v0.208c0,0.07.14,0.07,0.14,0.07l0.98-.209,0.7,0.7a0.245,0.245,0,0,0,.14.069h0.07a0.15,0.15,0,0,0,.14-0.139l0.14-.973,0.91-.487c0.07,0,.07-0.069.07-0.139A0.24,0.24,0,0,0,1796.01,589.717Zm40.78,29.97-0.83-.557-0.07-1.043a0.244,0.244,0,0,0-.07-0.139h-0.21l-0.77.626-0.98-.278a0.257,0.257,0,0,0-.21.07,0.129,0.129,0,0,0,0,.208l0.35,0.9-0.56.835a0.129,0.129,0,0,0,0,.208c0,0.07.07,0.07,0.14,0.07l1.05-.07,0.63,0.765c0,0.069.07,0.069,0.14,0.069h0.07a0.15,0.15,0,0,0,.14-0.139l0.28-.973,0.97-.348a0.15,0.15,0,0,0,.14-0.139A1.02,1.02,0,0,1,1836.79,619.687Zm-42.11-7.51c0-.07,0-0.139-0.07-0.139l-0.84-.557-0.07-1.043a0.244,0.244,0,0,0-.07-0.139h-0.21l-0.77.626-0.98-.209a0.257,0.257,0,0,0-.21.07,0.129,0.129,0,0,0,0,.208l0.35,0.9-0.56.835a0.13,0.13,0,0,0,0,.209c0,0.069.07,0.069,0.14,0.069l1.05-.069,0.63,0.764c0,0.07.07,0.07,0.14,0.07h0.07a0.15,0.15,0,0,0,.14-0.139l0.28-.973,0.98-.348v-0.139Zm5.25,14.463a0.712,0.712,0,0,1-.21-0.069l-1.05-.209-0.42-.9c0-.07-0.07-0.07-0.14-0.07a0.244,0.244,0,0,0-.14.07l-0.49.9-0.98.139a0.15,0.15,0,0,0-.14.139,0.252,0.252,0,0,0,.07.208l0.7,0.7-0.21.973c0,0.07,0,.139.07,0.139a0.131,0.131,0,0,0,.21,0l0.91-.486,0.91,0.486h0.14a0.138,0.138,0,0,0,.07-0.139l-0.14-.973,0.77-.7A0.252,0.252,0,0,0,1799.93,626.64Zm13.99-45.2a0.659,0.659,0,0,0-.7.7v19.539a0.7,0.7,0,0,0,.7.695,0.659,0.659,0,0,0,.7-0.695V582.138A0.659,0.659,0,0,0,1813.92,581.442Zm0,30.735a0.659,0.659,0,0,0-.7.695v15.645a0.7,0.7,0,0,0,1.4,0V612.872A0.659,0.659,0,0,0,1813.92,612.177Zm-1.68-13.073-2.94-8.136a0.731,0.731,0,0,0-.91-0.417,0.688,0.688,0,0,0-.35.9l2.94,8.136a0.672,0.672,0,0,0,.63.487,0.257,0.257,0,0,0,.21-0.07A0.722,0.722,0,0,0,1812.24,599.1Zm-3.92-10.5-1.05-2.5a0.73,0.73,0,0,0-.91-0.417,0.722,0.722,0,0,0-.42.9l1.05,2.573a0.673,0.673,0,0,0,.63.417,0.529,0.529,0,0,0,.28-0.07A0.722,0.722,0,0,0,1808.32,588.6Zm11.41,31.778-3.78-10.639a0.729,0.729,0,0,0-.91-0.417,0.722,0.722,0,0,0-.42.9l3.85,10.638a0.671,0.671,0,0,0,.63.487,0.26,0.26,0,0,0,.21-0.069A0.722,0.722,0,0,0,1819.73,620.382Zm-6.79-16.619-12.59-15.228a0.683,0.683,0,0,0-.98-0.07,0.673,0.673,0,0,0-.07.974l12.59,15.158a0.866,0.866,0,0,0,.56.278,0.993,0.993,0,0,0,.42-0.139A0.672,0.672,0,0,0,1812.94,603.763Zm15.6,19.539-9.79-11.96a0.683,0.683,0,0,0-.98-0.069,0.672,0.672,0,0,0-.07.973l9.79,11.891a0.866,0.866,0,0,0,.56.278,1.007,1.007,0,0,0,.42-0.139A0.673,0.673,0,0,0,1828.54,623.3Zm-20.71-21.834-9.65-5.771a0.735,0.735,0,0,0-.77,1.252l9.65,5.771a0.639,0.639,0,0,0,.35.069,0.835,0.835,0,0,0,.63-0.347A0.746,0.746,0,0,0,1807.83,601.468Zm23.37,14.185-15.74-9.317a0.756,0.756,0,0,0-.98.208,0.746,0.746,0,0,0,.21.974l15.67,9.318a0.639,0.639,0,0,0,.35.069,0.836,0.836,0,0,0,.63-0.348A0.559,0.559,0,0,0,1831.2,615.653Zm-23.58-11.612-15.6-3.059a0.708,0.708,0,0,0-.84.556,0.672,0.672,0,0,0,.56.834l15.6,3.06h0.14a0.681,0.681,0,0,0,.7-0.557A0.7,0.7,0,0,0,1807.62,604.041Zm27.01,5.493-13.58-2.642a0.672,0.672,0,0,0-.83.556,0.705,0.705,0,0,0,.55.835l13.58,2.642h0.14a0.681,0.681,0,0,0,.7-0.556A0.7,0.7,0,0,0,1834.63,609.534Zm-7-6.258-9.51,1.391a0.689,0.689,0,0,0-.56.765,0.742,0.742,0,0,0,.7.626h0.07l9.51-1.391a0.9,0.9,0,0,0,.56-0.835A0.694,0.694,0,0,0,1827.63,603.276Zm-16.51,3.13a0.694,0.694,0,0,0-.77-0.557l-11.19,1.6a0.69,0.69,0,0,0-.56.765,0.742,0.742,0,0,0,.7.626h0.07l11.19-1.669A0.689,0.689,0,0,0,1811.12,606.406Zm20.78-3.06a0.694,0.694,0,0,0-.77-0.557l-0.84.139a0.691,0.691,0,0,0-.56.766,0.743,0.743,0,0,0,.7.625c0-.069,0-0.069.07-0.069l0.84-.139A0.69,0.69,0,0,0,1831.9,603.346Zm-34.35,5.076a0.692,0.692,0,0,0-.77-0.556l-0.84.069a0.69,0.69,0,0,0-.56.765,0.742,0.742,0,0,0,.7.626h0.07l0.84-.139A0.69,0.69,0,0,0,1797.55,608.422Zm36.59-13.282a0.711,0.711,0,0,0-.98-0.277l-13.08,7.023a0.7,0.7,0,0,0-.28.973,0.736,0.736,0,0,0,.63.348,0.631,0.631,0,0,0,.35-0.07l13.08-7.023A0.7,0.7,0,0,0,1834.14,595.14Zm-25.4,13.769a0.71,0.71,0,0,0-.98-0.278l-13.08,7.022a0.7,0.7,0,0,0-.28.974,0.736,0.736,0,0,0,.63.348,0.631,0.631,0,0,0,.35-0.07l13.08-7.023A0.7,0.7,0,0,0,1808.74,608.909Zm18.54-17.662a0.683,0.683,0,0,0-.98.069L1814.9,603.9a0.672,0.672,0,0,0,.07.973,1.012,1.012,0,0,0,.49.139,0.637,0.637,0,0,0,.49-0.208l11.4-12.586A0.672,0.672,0,0,0,1827.28,591.247Zm-13.92,15.367a0.685,0.685,0,0,0-.98.069L1800.91,619.2a0.672,0.672,0,0,0,.07.973,0.679,0.679,0,0,0,.98,0l11.4-12.586A0.669,0.669,0,0,0,1813.36,606.614Zm-12.87,14.324a0.629,0.629,0,0,0-.98,0l-1.26,1.391a0.672,0.672,0,0,0,.07.973,0.679,0.679,0,0,0,.98,0l1.26-1.39A0.673,0.673,0,0,0,1800.49,620.938Zm29.94-33.168a0.683,0.683,0,0,0-.98.07l-1.26,1.321a0.672,0.672,0,0,0,.07.973,0.679,0.679,0,0,0,.98,0l1.26-1.391A0.672,0.672,0,0,0,1830.43,587.77Zm-7.77-2.851a0.7,0.7,0,0,0-.91.348l-4.68,11.4a0.619,0.619,0,0,0,.35.9,0.421,0.421,0,0,0,.28.07,0.612,0.612,0,0,0,.63-0.417l4.68-11.4A0.688,0.688,0,0,0,1822.66,584.919Zm-10,25.1a0.7,0.7,0,0,0-.91.348l-5.74,13.768a0.688,0.688,0,0,0,.35.9,0.426,0.426,0,0,0,.28.069,0.612,0.612,0,0,0,.63-0.417l5.74-13.768A0.654,0.654,0,0,0,1812.66,610.021Z" transform="translate(-1791.19 -581.438)"/>
</svg>
