<?xml version="1.0" encoding="utf-8"?>
<!-- Generator: Adobe Illustrator 25.2.1, SVG Export Plug-In . SVG Version: 6.00 Build 0)  -->
<svg version="1.1" id="Layer_1" xmlns="http://www.w3.org/2000/svg" xmlns:xlink="http://www.w3.org/1999/xlink" x="0px" y="0px"
	 viewBox="0 0 106.7 94.6" style="enable-background:new 0 0 106.7 94.6;" xml:space="preserve">
<style type="text/css">
	.st0{fill:#FFFFFF;stroke:#999999;stroke-width:4;stroke-miterlimit:10;}
</style>
<g>
	<path class="st0" d="M96.8,10.6c-10.3-10.3-27.1-10.3-37.4,0l-6,6.1l-6-6.1C37,0.3,20.3,0.3,9.9,10.6S-0.4,37.7,9.9,48l6.1,6
		l3.2,3.2c0-4.1,1.5-7.8,3.9-10.7l-5.9-5.9c-6.3-6.3-6.3-16.5,0-22.8c3-3,7.1-4.7,11.4-4.7c4.3,0,8.4,1.7,11.4,4.7l13.4,13.4
		l13.3-13.4c3-3,7.1-4.7,11.4-4.7c4.3,0,8.3,1.7,11.4,4.7c6.3,6.3,6.3,16.5,0,22.8L53.4,76.8c-6-6-11.5-11.5-16.9-17
		c-0.2-0.2-0.4-0.5-0.6-0.8c-0.9-1.8-0.9-3.5,0.6-4.9c1.5-1.4,3.3-1.5,4.9-0.4c1.3,0.9,2.4,2.1,3.6,3.3c2.8,2.7,5.5,5.4,8.6,8.4
		l10.7-10.7c0.1-0.1,0.2-0.2,0.3-0.3c0,0,0.2-0.2,0.6-0.6c0,0,0.1-0.1,0.1-0.1c0.3-0.3,0.7-0.7,1.2-1.2l8.1-8
		c-5.3-3.1-11.4-2.5-16.3,1.5c-1.6,1.3-3,2.8-4.6,4.3c-2.2-1.9-4-3.6-5.9-5c-5.9-4.2-13.7-3.6-18.7,1.5c-4.9,4.9-6.2,13.1-1.6,18.2
		c8.1,9.2,17,17.7,25.9,26.8c1.8-1.7,3.1-2.8,4.3-4.1c5.6-5.6,11-11.3,16.5-16.8l4.5-4.5l0,0l0,0l12.2-12.2l6.1-6
		C107.1,37.7,107.1,21,96.8,10.6z"/>
</g>
</svg>
