<svg xmlns="http://www.w3.org/2000/svg" width="16" height="22" viewBox="0 0 16 22">
  <defs>
    <style>
      .cls-1 {
        fill: #999;
        fill-rule: evenodd;
      }
    </style>
  </defs>
  <path class="cls-1" d="M1258.95,1434.22l-0.28,2.6a0.516,0.516,0,0,0,.11.36,0.413,0.413,0,0,0,.33.15h1.78a0.413,0.413,0,0,0,.33-0.15,0.516,0.516,0,0,0,.11-0.36l-0.28-2.6A1.78,1.78,0,1,0,1258.95,1434.22Zm1.05-2.39a0.918,0.918,0,0,1,.38,1.74,0.443,0.443,0,0,0-.24.46l0.25,2.38h-0.78l0.25-2.38a0.443,0.443,0,0,0-.24-0.46A0.918,0.918,0,0,1,1260,1431.83Zm7.56-4.58h-1.34v-1.83a6.223,6.223,0,1,0-12.44,0v1.83h-1.34a0.455,0.455,0,0,0-.44.46v11.45a1.81,1.81,0,0,0,1.78,1.84h12.44a1.81,1.81,0,0,0,1.78-1.84v-11.45A0.455,0.455,0,0,0,1267.56,1427.25Zm-12.89-1.83a5.333,5.333,0,1,1,10.66,0v1.83h-0.89v-1.83a4.442,4.442,0,1,0-8.88,0v1.83h-0.89v-1.83Zm8.89,0v1.83h-7.12v-1.83A3.562,3.562,0,1,1,1263.56,1425.42Zm3.55,13.74a0.905,0.905,0,0,1-.89.92h-12.44a0.905,0.905,0,0,1-.89-0.92v-10.99h14.22v10.99Z" transform="translate(-1252 -1419)"/>
</svg>
