<svg xmlns="http://www.w3.org/2000/svg" width="37" height="46" viewBox="0 0 37 46">
  <defs>
    <style>
      .cls-1 {
        fill: #bd4d94;
        fill-rule: evenodd;
      }
    </style>
  </defs>
  <path class="cls-1" d="M1825.3,971.047a10.182,10.182,0,0,0-1.11-.388v-5.407c0-5.62-4.36-9.252-11.12-9.252s-11.12,3.632-11.12,9.252v5.007a10.594,10.594,0,0,0-2.26.8,10.93,10.93,0,0,0-5.69,9.58,10.334,10.334,0,0,0,.51,3.25c1.76,7.9,16.68,17.295,17.32,17.7l0.67,0.42,0.67-.42c0.64-.4,15.55-9.8,17.28-17.571a10.457,10.457,0,0,0,.55-3.373A10.942,10.942,0,0,0,1825.3,971.047Zm-20.84-5.8c0-6.267,6.59-6.754,8.61-6.754s8.61,0.486,8.61,6.754v4.64a14.779,14.779,0,0,1-17.22-.017v-4.624h0Zm23.58,18.1c-1.22,5.422-11.06,12.783-15.54,15.7-4.48-2.914-14.33-10.283-15.57-15.812a8.26,8.26,0,0,1-.42-2.6,8.442,8.442,0,0,1,4.39-7.4,8.515,8.515,0,0,1,10.63,2.014l0.97,1.156,0.97-1.155a8.656,8.656,0,0,1,10.63-2.016,8.462,8.462,0,0,1,4.39,7.4A8.654,8.654,0,0,1,1828.04,983.348Zm-1.12-2.714a6.755,6.755,0,0,1-.34,2.106,0.629,0.629,0,0,1-.6.426,0.554,0.554,0,0,1-.19-0.028,0.618,0.618,0,0,1-.4-0.789,5.437,5.437,0,0,0,.29-1.712,5.629,5.629,0,0,0-2.93-4.934,5.7,5.7,0,0,0-2.75-.711,0.623,0.623,0,0,1,0-1.245A6.906,6.906,0,0,1,1826.92,980.634Zm-11.26,1.809a3.131,3.131,0,0,1-1.38,2.53l1.09,5.686h-5.75l0.92-5.814a3.08,3.08,0,0,1-1.2-2.4A3.16,3.16,0,0,1,1815.66,982.443Z" transform="translate(-1794 -956)"/>
</svg>
