<svg xmlns="http://www.w3.org/2000/svg" width="44.37" height="42" viewBox="0 0 44.37 42">
  <defs>
    <style>
      .cls-1 {
        fill: #999;
        fill-rule: evenodd;
      }
    </style>
  </defs>
  <path class="cls-1" d="M1831.35,695.883a0.8,0.8,0,0,0-1.13,0l-8.26,8.259a0.8,0.8,0,0,0,1.13,1.126l8.26-8.258A0.8,0.8,0,0,0,1831.35,695.883Zm2.25,2.21a0.8,0.8,0,0,0-1.13,0l-8.26,8.26a0.8,0.8,0,0,0,0,1.126,0.787,0.787,0,0,0,.56.234,0.77,0.77,0,0,0,.56-0.234l8.27-8.259A0.8,0.8,0,0,0,1833.6,698.093Zm-7.8,13.947,10.26-10.252a0.8,0.8,0,0,0-1.13-1.127l-10.25,10.253a4.238,4.238,0,0,1-4.81.824,0.8,0.8,0,0,0-.94.19l-3.49,3.926v0s0,0-.01.005l-15.06,16.962a0.17,0.17,0,0,0-.01.014c-0.05.058-.1,0.109-0.15,0.157a2.546,2.546,0,0,1-3.6,0,2.542,2.542,0,0,1,0-3.606,1.231,1.231,0,0,1,.15-0.144c0.01,0,.01-0.007.02-0.011l9.41-8.355a0.794,0.794,0,1,0-1.05-1.191l-9.42,8.349a2.789,2.789,0,0,0-.24.226,4.143,4.143,0,0,0,5.86,5.859c0.08-.077.15-0.157,0.23-0.246l11.48-12.927,11.48,12.927c0.07,0.089.15,0.169,0.22,0.246a4.147,4.147,0,0,0,5.87-5.859c-0.08-.076-0.16-0.15-0.25-0.226l-13.21-11.718,2.58-2.911A5.829,5.829,0,0,0,1825.8,712.04Zm3.52,17.2s0.01,0.007.01,0.011c0.06,0.05.11,0.1,0.16,0.144a2.551,2.551,0,0,1-3.61,3.606c-0.05-.048-0.09-0.1-0.14-0.157a0.243,0.243,0,0,0-.02-0.014l-11.61-13.075,1.99-2.239Zm-0.36-35.672a0.8,0.8,0,0,0-1.13,0l-10.26,10.253a5.838,5.838,0,0,0-1.37,6.055l-3.15,2.8-3.04-2.691a8,8,0,0,0-1.49-9.319,18.151,18.151,0,0,0-8.06-4.895c-2.85-.717-5.29-0.239-6.88,1.346s-2.06,4.025-1.34,6.87a18.069,18.069,0,0,0,4.89,8.058,8.027,8.027,0,0,0,9.33,1.492s2.97,3.341,3,3.383a0.808,0.808,0,0,0,.6.268,0.789,0.789,0,0,0,.53-0.2l7.1-6.295a0.809,0.809,0,0,0,.19-0.939,4.233,4.233,0,0,1,.82-4.806l10.26-10.252A0.8,0.8,0,0,0,1828.96,693.563Zm-18.83,21.7-2.9-3.267a0.8,0.8,0,0,0-1.02-.148,6.436,6.436,0,0,1-7.95-.933,16.577,16.577,0,0,1-4.48-7.321c-0.57-2.28-.24-4.182.93-5.354s3.08-1.5,5.36-.929a16.538,16.538,0,0,1,7.32,4.477,6.426,6.426,0,0,1,.94,7.945,0.788,0.788,0,0,0,.15,1.014l3.37,2.991Z" transform="translate(-1791.94 -693.344)"/>
</svg>
