<svg xmlns="http://www.w3.org/2000/svg" width="15" height="22" viewBox="0 0 15 22">
  <defs>
    <style>
      .cls-1 {
        fill: #999;
        fill-rule: evenodd;
      }
    </style>
  </defs>
  <path class="cls-1" d="M1264.09,1459.9a0.335,0.335,0,0,0-.46-0.17,0.359,0.359,0,0,0-.17.48,4.63,4.63,0,0,1,.4,1.88,4.362,4.362,0,1,1-4.36-4.5,4.3,4.3,0,0,1,3.23,1.48,0.351,0.351,0,0,0,.5.03,0.385,0.385,0,0,0,.02-0.52,5,5,0,0,0-3.75-1.72,5.233,5.233,0,1,0,5.06,5.23A5.322,5.322,0,0,0,1264.09,1459.9Zm2.39,2.19a3.116,3.116,0,0,1,.24-0.93,1.838,1.838,0,0,0-.87-2.73,2.838,2.838,0,0,1-.7-0.58,3,3,0,0,1-.32-0.88,2.5,2.5,0,0,0-.73-1.42,2.276,2.276,0,0,0-1.52-.28,1.7,1.7,0,0,1-1.66-.55,1.76,1.76,0,0,0-2.84,0,1.7,1.7,0,0,1-1.66.55,2.276,2.276,0,0,0-1.52.28,2.5,2.5,0,0,0-.73,1.42,3,3,0,0,1-.32.88,3.038,3.038,0,0,1-.7.58,1.838,1.838,0,0,0-.87,2.73,1.941,1.941,0,0,1,0,1.87,1.843,1.843,0,0,0,.87,2.73,1.761,1.761,0,0,1,1.02,1.46,2.5,2.5,0,0,0,.73,1.42,2.215,2.215,0,0,0,1.52.27,2.97,2.97,0,0,1,.92.05,2.922,2.922,0,0,1,.74.5,4.877,4.877,0,0,0,.62.48l-1.34,4.97-1.23-1.43a0.358,0.358,0,0,0-.37-0.1l-1.77.56,1.11-4.12a0.361,0.361,0,0,0-.24-0.45,0.353,0.353,0,0,0-.43.25l-1.28,4.76a0.346,0.346,0,0,0,.09.35,0.331,0.331,0,0,0,.35.09l2.17-.68,1.51,1.74a0.337,0.337,0,0,0,.26.12,0.22,0.22,0,0,0,.08-0.01,0.364,0.364,0,0,0,.26-0.25l1.5-5.56h0.26l1.5,5.56a0.364,0.364,0,0,0,.26.25,0.22,0.22,0,0,0,.08.01,0.337,0.337,0,0,0,.26-0.12l1.51-1.74,2.17,0.68a0.331,0.331,0,0,0,.35-0.09,0.346,0.346,0,0,0,.09-0.35l-1.59-5.89a2.933,2.933,0,0,0,.57-1.27,2.8,2.8,0,0,1,.32-0.88,2.634,2.634,0,0,1,.7-0.58,1.843,1.843,0,0,0,.87-2.73A3.1,3.1,0,0,1,1266.48,1462.09Zm-1.47,11.85-1.78-.56a0.347,0.347,0,0,0-.36.1l-1.23,1.43-1.35-4.97a4.355,4.355,0,0,0,.63-0.48,2.922,2.922,0,0,1,.74-0.5,2.97,2.97,0,0,1,.92-0.05,3.408,3.408,0,0,0,1.06-.05Zm1.27-9.57a1.969,1.969,0,0,1-.81.78,3.448,3.448,0,0,0-.89.76,3.524,3.524,0,0,0-.43,1.12,1.9,1.9,0,0,1-.46,1.02,1.8,1.8,0,0,1-1.08.14,3.066,3.066,0,0,0-1.17.09,3.034,3.034,0,0,0-.96.62,1.815,1.815,0,0,1-.98.56,1.838,1.838,0,0,1-.99-0.56,2.886,2.886,0,0,0-.95-0.62,2.223,2.223,0,0,0-.73-0.1c-0.15,0-.29,0-0.44.01a1.8,1.8,0,0,1-1.08-.14,1.9,1.9,0,0,1-.46-1.02,3.524,3.524,0,0,0-.43-1.12,3.448,3.448,0,0,0-.89-0.76,1.909,1.909,0,0,1-.81-0.78,2.019,2.019,0,0,1,.21-1.08,3.635,3.635,0,0,0,.29-1.2,3.579,3.579,0,0,0-.29-1.19,2.019,2.019,0,0,1-.21-1.08,1.924,1.924,0,0,1,.81-0.79,3.265,3.265,0,0,0,.89-0.76,3.468,3.468,0,0,0,.43-1.11,1.9,1.9,0,0,1,.46-1.03,1.8,1.8,0,0,1,1.08-.14,3.277,3.277,0,0,0,1.17-.08,3.243,3.243,0,0,0,.95-0.62,1.863,1.863,0,0,1,.99-0.57,1.84,1.84,0,0,1,.98.57,3.426,3.426,0,0,0,.96.62,3.277,3.277,0,0,0,1.17.08,1.8,1.8,0,0,1,1.08.14,1.9,1.9,0,0,1,.46,1.03,3.468,3.468,0,0,0,.43,1.11,3.265,3.265,0,0,0,.89.76,1.985,1.985,0,0,1,.81.79,2.019,2.019,0,0,1-.21,1.08,3.579,3.579,0,0,0-.29,1.19,3.635,3.635,0,0,0,.29,1.2A2.019,2.019,0,0,1,1266.28,1464.37Z" transform="translate(-1252 -1454)"/>
</svg>
