<svg xmlns="http://www.w3.org/2000/svg" width="44.37" height="46.375" viewBox="0 0 44.37 46.375">
  <defs>
    <style>
      .cls-1 {
        fill: #999;
        fill-rule: evenodd;
      }
    </style>
  </defs>
  <path class="cls-1" d="M1834.09,513.718a0.011,0.011,0,0,0-.01-0.012l-4.27-29.757a0.683,0.683,0,0,0-.67-0.582h-3.2v-3.522a8.929,8.929,0,0,0-8.91-8.924,8.882,8.882,0,0,1-10.49,0,8.862,8.862,0,0,0-5.13,1.622,0.679,0.679,0,0,0,.78,1.11,7.554,7.554,0,0,1,11.9,6.192v6.982a0.819,0.819,0,0,1-.86.822,0.852,0.852,0,0,1-.78-0.864v-6.94a5.91,5.91,0,1,0-11.82,0v6.94a0.861,0.861,0,0,1-.79.864,0.819,0.819,0,0,1-.86-0.822v-6.982a7.551,7.551,0,0,1,1.01-3.773,0.681,0.681,0,0,0-1.18-.678,8.989,8.989,0,0,0-1.18,4.451v3.522h-2.93a0.683,0.683,0,0,0-.67.582l-4.28,29.757a3.2,3.2,0,0,0,3.13,3.564h38.08a3.19,3.19,0,0,0,3.13-3.552h0Zm-9.5-33.873v3.522h-1.65v-3.522a5.907,5.907,0,0,0-9.04-5.021,8.935,8.935,0,0,0-1.06-1.278,7.476,7.476,0,0,1,4.19-1.268,7.571,7.571,0,0,1,7.56,7.567h0Zm-6.4,3.522h-2.74v-3.522a8.984,8.984,0,0,0-.87-3.843,4.553,4.553,0,0,1,7.01,3.843v3.522h-3.4Zm-7.1-3.522v3.522h-1.61v-3.522a7.552,7.552,0,0,1,.57-2.9A4.544,4.544,0,0,1,1811.09,479.845Zm-4.55-4.563a4.527,4.527,0,0,1,2.45.721,8.928,8.928,0,0,0-.87,3.842v3.522h-6.14v-3.522a4.563,4.563,0,0,1,4.56-4.563h0Zm25.77,40.021a1.793,1.793,0,0,1-1.35.609h-8.36a3.143,3.143,0,0,0,.54-2.206l-0.84-5.86a0.682,0.682,0,0,0-1.35.193l0.85,5.855a1.866,1.866,0,0,1-2.08,2.018h-26.84a1.824,1.824,0,0,1-1.78-2.018l4.19-29.17h2.34v2.1a2.175,2.175,0,1,0,4.35-.042v-2.061h9.11v2.061a2.18,2.18,0,1,0,4.36.042v-2.1h2.15l2.84,19.751a0.678,0.678,0,0,0,.77.574,0.67,0.67,0,0,0,.57-0.768l-2.81-19.557h9.58l4.19,29.17a1.769,1.769,0,0,1-.43,1.409h0Z" transform="translate(-1789.72 -470.906)"/>
</svg>
