<svg xmlns="http://www.w3.org/2000/svg" width="35.66" height="40.562" viewBox="0 0 35.66 40.562">
  <defs>
    <style>
      .cls-1 {
        fill: #999;
        fill-rule: evenodd;
      }
    </style>
  </defs>
  <path class="cls-1" d="M1830.41,811.815h-26.99l25.92-7.519a0.779,0.779,0,0,0,.54-0.981l-1.35-4.69a4.434,4.434,0,0,0-4.24-3.181,4.376,4.376,0,0,0-1.22.174l-24.34,7.06a4.424,4.424,0,0,0-3.01,5.46l1.33,4.582v18.872a4.406,4.406,0,0,0,4.4,4.408h9.51a0.792,0.792,0,0,0,0-1.584h-9.51a2.828,2.828,0,0,1-2.82-2.824v-10.78h30.99v10.78a2.828,2.828,0,0,1-2.82,2.824h-9.51a0.792,0.792,0,0,0,0,1.584h9.51a4.406,4.406,0,0,0,4.4-4.408V812.607A0.789,0.789,0,0,0,1830.41,811.815Zm-13.95,7.413,3.36-5.829h4.37l-3.36,5.829h-4.37Zm-6.2,0,3.36-5.829h4.37l-3.36,5.829h-4.37Zm-6.2,0,3.36-5.829h4.37l-3.36,5.829h-4.37Zm2.94-10.254-5.63-5.413,4.22-1.224a0.721,0.721,0,0,0,.1.122l5.63,5.414-4.22,1.223A0.721,0.721,0,0,0,1807,808.974Zm10.6-9.968,5.63,5.413-4.22,1.223a0.769,0.769,0,0,0-.1-0.123l-5.63-5.412,4.22-1.224A0.769,0.769,0,0,0,1817.6,799.006Zm-5.95,1.727,5.63,5.412-4.22,1.224c-0.03-.044-0.07-0.084-0.1-0.122l-5.63-5.414,4.21-1.222A0.837,0.837,0,0,0,1811.65,800.733Zm11.86-3.594a2.828,2.828,0,0,1,3.5,1.927l1.13,3.928-3.17.921c-0.03-.043-0.07-0.085-0.1-0.123l-5.63-5.412Zm-26.02,8.412a2.787,2.787,0,0,1,1.68-1.352l0.46-.135a0.8,0.8,0,0,0,.11.123l5.63,5.413-6.99,2.026-1.14-3.928A2.826,2.826,0,0,1,1797.49,805.551Zm1.14,7.848h6.96l-3.36,5.829h-3.6V813.4Zm24.03,5.829,3.36-5.829h3.6v5.829h-6.96Zm-3.06,8.306a0.787,0.787,0,0,0-.4-0.687l-6.95-4.017a0.8,0.8,0,0,0-1.19.686v8.035a0.8,0.8,0,0,0,.79.792,0.8,0.8,0,0,0,.4-0.106l6.95-4.018A0.783,0.783,0,0,0,1819.6,827.534Zm-6.95,2.646v-5.292l4.57,2.646Zm1.48,4.236a0.792,0.792,0,1,0,.79.792A0.8,0.8,0,0,0,1814.13,834.416Z" transform="translate(-1795.53 -795.438)"/>
</svg>
