<?xml version="1.0" encoding="utf-8"?>
<!-- Generator: Adobe Illustrator 19.0.0, SVG Export Plug-In . SVG Version: 6.00 Build 0)  -->
<svg version="1.1" id="Gradient" xmlns="http://www.w3.org/2000/svg" xmlns:xlink="http://www.w3.org/1999/xlink" x="0px" y="0px"
	 viewBox="-33 157.1 479.9 479.8" style="enable-background:new -33 157.1 479.9 479.8;" xml:space="preserve">
<style type="text/css">
	.st0{fill:url(#SVGID_1_);}
</style>
<linearGradient id="SVGID_1_" gradientUnits="userSpaceOnUse" x1="342.8476" y1="1141.9801" x2="342.8476" y2="662.1447" gradientTransform="matrix(1 0 0 1 -135.9199 -505.0801)">
	<stop  offset="0" style="stop-color:#B84F97"/>
	<stop  offset="0.9138" style="stop-color:#E51D5B"/>
</linearGradient>
<path class="st0" d="M175,533c-2.1,0-4.2,0.8-5.7,2.3c-3.3,3.5-6.3,7.2-9,11.2c-6.2,9.3-9.3,18.2-9.3,26.4c0,17.6,14.4,24,24,24
	s24-6.4,24-24c0-18.8-16.5-35.8-18.3-37.7C179.2,533.8,177.1,533,175,533z M179.7,579.7c-2.9,1.7-6.5,1.7-9.4,0
	c-1.6-0.9-3.3-2.4-3.3-6.7c0-6.6,4.1-14,8-19.5c3.9,5.5,8,12.9,8,19.5C183,577.3,181.3,578.8,179.7,579.7z M233.3,575.3
	c-3.3,3.5-6.3,7.2-9,11.2c-6.2,9.3-9.3,18.2-9.3,26.4c0,17.6,14.4,24,24,24s24-6.4,24-24c0-18.8-16.5-35.8-18.3-37.7
	C241.5,572.2,236.5,572.2,233.3,575.3L233.3,575.3L233.3,575.3z M247,613c0,4.3-1.7,5.8-3.3,6.7c-2.9,1.7-6.5,1.7-9.4,0
	c-1.6-0.9-3.3-2.4-3.3-6.7c0-6.6,4.1-14,8-19.5C242.9,599,247,606.4,247,613z M82.9,602.4c3.8,2.3,8.7,1.1,11-2.7
	c2.3-3.8,1.1-8.7-2.7-11l0,0C24,548.2-17,475.5-17,397c0-123.7,100.3-224,224-224c59.4,0,116.4,23.6,158.4,65.6
	c83.7,83.7,87.8,218.2,9.4,306.8l-18.1-18.1c-3.1-3.1-8.2-3.1-11.3,0c-1.2,1.2-2,2.8-2.3,4.5l-8,56c-0.6,4.4,2.4,8.4,6.8,9.1
	c0.4,0.1,0.8,0.1,1.1,0.1s0.8,0,1.1-0.1l56-8c4.4-0.6,7.4-4.7,6.8-9.1c-0.2-1.7-1-3.3-2.3-4.5L386,556.7
	c88.2-98.9,79.5-250.6-19.4-338.8c-94.9-84.6-239.3-80.5-329.3,9.4C-39.4,304-55.1,422.6-1.1,516.6
	C19.2,551.8,48.1,581.4,82.9,602.4z M352.4,579.6l4.2-29.6l25.4,25.4L352.4,579.6z M391,333c0-39.7-28.7-72-64-72
	c-15,0.1-29.4,5.8-40.4,16.1c-32.3-10.7-59-16.1-79.6-16.1s-47.4,5.4-79.6,16.1c-10.9-10.3-25.4-16-40.4-16.1c-35.3,0-64,32.3-64,72
	c0,8.9,1.4,17.7,4.3,26.1c-2.2,11.8,2.4,25.9,13,36.6c13.8,13.8,33.3,17.4,46.2,9.4c0.1,0,0.3,0,0.4,0c21.6,0,41.4-12.5,53.1-31.8
	c2.1,13.2,3,26.5,2.9,39.8c0,36.1,23.3,60.1,32,67.8V509c0,4.4,3.6,8,8,8h48c4.4,0,8-3.6,8-8v-28.3c8.7-7.7,32-31.6,32-67.8
	c-0.1-13.3,0.9-26.6,2.9-39.8c11.7,19.3,31.4,31.8,53.1,31.8c0.1,0,0.3,0,0.4,0c12.9,8,32.4,4.4,46.2-9.4
	c10.7-10.7,15.2-24.7,13-36.6C389.6,350.7,391,341.9,391,333z M80,390c-6.1,6.1-19.1,3.5-28.3-5.7c-9.2-9.2-11.8-22.2-5.7-28.3
	c6.1-6.1,19.1-3.5,28.3,5.7C83.5,370.9,86.1,383.8,80,390z M71,333c0-13,7.3-24,16-24s16,11,16,24c0,11.1-5.3,20.7-12.3,23.3
	c-1.5-2.1-3.2-4.1-5.1-5.9c-4-4-8.6-7.3-13.8-9.7C71.3,338.2,71,335.6,71,333z M226.2,470.6c-2,1.5-3.2,3.9-3.2,6.4v24h-32v-24
	c0-2.5-1.2-4.9-3.2-6.4c-9.8-8.2-17.7-18.6-22.9-30.3c5.1-1.7,10-4,14.6-6.7c12.7-7.7,20.1-21.8,19.1-36.6
	c-3-48.9-19.5-70.6-33.8-80.3c13.6-4.6,27.9-7.2,42.3-7.7c14.4,0.5,28.6,3.1,42.3,7.7c-14.3,9.6-30.8,31.4-33.8,80.3
	c-1,14.8,6.4,28.9,19.1,36.6c4.6,2.8,9.5,5,14.6,6.7C243.9,452,236,462.4,226.2,470.6z M280.2,345.3c-0.8-4.3-5-7.2-9.4-6.3
	c-2.8,0.5-5.1,2.5-6,5.2c-6.5,18.4-9.8,41.5-9.8,68.9c0,4-0.4,8-1.1,12c-3.9-1.3-7.6-3.1-11.1-5.2c-7.6-4.6-11.9-13-11.3-21.9
	c4.3-70.1,37.4-72.8,39.6-72.9c3.7,0.1,7-2.4,7.8-6c0.9-3.7-0.9-7.5-4.3-9.1c-33.3-16.8-66.2-17-67.6-17s-34.3,0.2-67.6,16.8
	c-3.4,1.7-5.2,5.4-4.3,9.1c0.9,3.6,4.1,6.1,7.8,6c2.2,0.1,35.4,2.8,39.6,72.9c0.6,8.8-3.7,17.3-11.3,21.9c-3.5,2.1-7.3,3.8-11.1,5.2
	c-0.7-4-1.1-8-1.1-12c0-27.3-3.3-50.5-9.8-68.9c-1.5-4.2-6-6.4-10.2-4.9c-2.7,0.9-4.7,3.2-5.2,6c-4,20.8-18,36.9-35.2,42
	c1-5.5,0.7-11.2-0.9-16.6c12.4-5.5,21.3-20.3,21.3-37.7c0-22.1-14.4-40-32-40s-32,17.9-32,40c0,1.3,0.1,2.5,0.1,3.8
	c-5.5-0.1-10.9,1.3-15.7,4.2c-0.3-2.6-0.5-5.3-0.5-8c0-30.9,21.5-56,48-56c12,0,23.5,5.2,32.4,14.7c2.2,2.3,5.4,3.1,8.4,2.1
	c32.2-11,59.6-16.8,79.2-16.8s46.9,5.8,79.2,16.8c3,1,6.3,0.2,8.4-2.1c8.9-9.5,20.4-14.7,32.4-14.7c26.5,0,48,25.1,48,56
	c0,2.7-0.2,5.3-0.5,8c-4.7-2.8-10.2-4.3-15.7-4.2c0.1-1.3,0.1-2.5,0.1-3.8c0-22.1-14.4-40-32-40s-32,17.9-32,40
	c0,17.4,8.9,32.1,21.3,37.7c-1.6,5.4-1.9,11.1-0.9,16.6C298.2,382.2,284.2,366.1,280.2,345.3L280.2,345.3z M328.4,350.4
	c-1.8,1.8-3.5,3.8-5.1,5.9c-7-2.6-12.3-12.2-12.3-23.3c0-13,7.3-24,16-24s16,11,16,24c0,2.6-0.3,5.2-0.9,7.7
	C337,343.1,332.4,346.4,328.4,350.4L328.4,350.4z M362.3,384.3c-9.2,9.2-22.2,11.8-28.3,5.7c-6.1-6.1-3.5-19.1,5.7-28.3
	c9.2-9.2,22.2-11.8,28.3-5.7C374.1,362.2,371.5,375.1,362.3,384.3L362.3,384.3z"/>
</svg>
