<?xml version="1.0" encoding="utf-8"?>
<!-- Generator: Adobe Illustrator 19.0.0, SVG Export Plug-In . SVG Version: 6.00 Build 0)  -->
<svg version="1.1" id="Gradient" xmlns="http://www.w3.org/2000/svg" xmlns:xlink="http://www.w3.org/1999/xlink" x="0px" y="0px"
	 viewBox="-45 170.1 519.5 464.9" style="enable-background:new -45 170.1 519.5 464.9;" xml:space="preserve">
<style type="text/css">
	.st0{fill:url(#SVGID_1_);}
	.st1{fill:url(#SVGID_2_);}
	.st2{fill:url(#SVGID_3_);}
	.st3{fill:url(#SVGID_4_);}
	.st4{fill:url(#SVGID_5_);}
</style>
<g>
	<g>
		
			<linearGradient id="SVGID_1_" gradientUnits="userSpaceOnUse" x1="34.4" y1="479.9" x2="258.2" y2="479.9" gradientTransform="matrix(1 0 0 -1 0 794)">
			<stop  offset="0" style="stop-color:#E51D5B"/>
			<stop  offset="0.9138" style="stop-color:#B84F97"/>
		</linearGradient>
		<path class="st0" d="M258.2,314.1c0-4.1-3.4-7.5-7.5-7.5H41.9c-4.1,0-7.5,3.4-7.5,7.5s3.4,7.5,7.5,7.5h208.9
			C254.9,321.6,258.2,318.2,258.2,314.1z"/>
		
			<linearGradient id="SVGID_2_" gradientUnits="userSpaceOnUse" x1="34.4" y1="411" x2="222.9" y2="411" gradientTransform="matrix(1 0 0 -1 0 794)">
			<stop  offset="0" style="stop-color:#E51D5B"/>
			<stop  offset="0.9138" style="stop-color:#B84F97"/>
		</linearGradient>
		<path class="st1" d="M215.4,375.5H41.9c-4.1,0-7.5,3.4-7.5,7.5s3.4,7.5,7.5,7.5h173.5c4.1,0,7.5-3.4,7.5-7.5
			S219.5,375.5,215.4,375.5L215.4,375.5z"/>
		
			<linearGradient id="SVGID_3_" gradientUnits="userSpaceOnUse" x1="34.4" y1="342.1" x2="222.9" y2="342.1" gradientTransform="matrix(1 0 0 -1 0 794)">
			<stop  offset="0" style="stop-color:#E51D5B"/>
			<stop  offset="0.9138" style="stop-color:#B84F97"/>
		</linearGradient>
		<path class="st2" d="M215.4,444.4H41.9c-4.1,0-7.5,3.4-7.5,7.5s3.4,7.5,7.5,7.5h173.5c4.1,0,7.5-3.4,7.5-7.5
			S219.5,444.4,215.4,444.4L215.4,444.4z"/>
		
			<linearGradient id="SVGID_4_" gradientUnits="userSpaceOnUse" x1="248.2512" y1="496.25" x2="471.5007" y2="496.25" gradientTransform="matrix(1 0 0 -1 0 794)">
			<stop  offset="0" style="stop-color:#E51D5B"/>
			<stop  offset="0.9138" style="stop-color:#B84F97"/>
		</linearGradient>
		<path class="st3" d="M465,360.8c-25.2-20.3-39.7-50.6-39.7-83V269c0-24.8-13.9-46.5-34.4-57.6v-10.3c0-17.1-13.9-31-31-31
			s-31,13.9-31,31v10.3c-20.4,11.1-34.4,32.7-34.4,57.6v8.9c0,32.4-14.5,62.7-39.7,83c-6.8,5.5-8.6,15.1-4,22.6
			c3.2,5.2,8.7,8.3,14.8,8.3h47.9c6.4,19.8,25,33.6,46.3,33.6s39.9-13.8,46.3-33.6H454c6.1,0,11.6-3.1,14.8-8.3
			C473.6,375.9,471.8,366.3,465,360.8L465,360.8z M343.8,201.1c0-8.8,7.2-16,16-16s16,7.2,16,16v4.5c-10.4-2.6-21.4-2.7-32.1,0v-4.5
			H343.8z M359.9,410.4c-13,0-24.5-7.4-30.1-18.6H390C384.4,402.9,372.9,410.4,359.9,410.4L359.9,410.4z M454.1,376.8
			c-21.4,0-154.9,0-188.5,0c-2.1,0-3.3-2.7-1.4-4.3c28.8-23.2,45.3-57.7,45.3-94.7V269c0-27.8,22.6-50.4,50.4-50.4
			s50.4,22.6,50.4,50.4v8.9c0,37,16.5,71.5,45.3,94.7C457.5,374.1,456.2,376.8,454.1,376.8L454.1,376.8z"/>
		
			<linearGradient id="SVGID_5_" gradientUnits="userSpaceOnUse" x1="-40.5" y1="366.157" x2="412.6" y2="366.157" gradientTransform="matrix(1 0 0 -1 0 794)">
			<stop  offset="0" style="stop-color:#E51D5B"/>
			<stop  offset="0.9138" style="stop-color:#B84F97"/>
		</linearGradient>
		<path class="st4" d="M405.1,415.1c-4.1,0-7.5,3.4-7.5,7.5v64.2c0,24.8-20.2,45-45,45H125.1c-6.3,0-12.3,2.4-16.9,6.7L27,615.6
			l12-66.4c1.6-9.1-5.3-17.4-14.6-17.4h-5c-24.8,0-45-20.2-45-45v-205c0-24.8,20.2-45,45-45h260.8c4.1,0,7.5-3.4,7.5-7.5
			c0-4.1-3.4-7.5-7.5-7.5H19.5c-33.1,0-60,26.9-60,60v205c0,33.1,26.9,60,60,60h4.7l-12.9,71.6c-1,5.6,1.7,11.2,6.7,13.9
			s11.2,1.9,15.3-2l85.2-80.9c1.8-1.7,4.1-2.6,6.6-2.6h227.5c33.1,0,60-26.9,60-60v-64.2C412.6,418.4,409.2,415.1,405.1,415.1
			L405.1,415.1z"/>
	</g>
</g>
</svg>
