<?xml version="1.0" encoding="utf-8"?>
<!-- Generator: Adobe Illustrator 19.0.0, SVG Export Plug-In . SVG Version: 6.00 Build 0)  -->
<svg version="1.1" id="Gradient" xmlns="http://www.w3.org/2000/svg" xmlns:xlink="http://www.w3.org/1999/xlink" x="0px" y="0px"
	 viewBox="-3 166.1 415.9 479.9" style="enable-background:new -3 166.1 415.9 479.9;" xml:space="preserve">
<style type="text/css">
	.st0{fill:url(#SVGID_1_);}
</style>
<linearGradient id="SVGID_1_" gradientUnits="userSpaceOnUse" x1="340.8699" y1="1151.0801" x2="340.8699" y2="671.1801" gradientTransform="matrix(1 0 0 1 -135.9199 -505.0801)">
	<stop  offset="0" style="stop-color:#E51D5B"/>
	<stop  offset="0.9138" style="stop-color:#B84F97"/>
</linearGradient>
<path class="st0" d="M54.5,550.6c12.7,10,26.9,17.9,42,23.4l-11.4,62.6c-0.8,4.3,2.1,8.5,6.4,9.3c0.5,0.1,1,0.1,1.4,0.1h264
	c2.7,0,5.2-1.3,6.7-3.6c2-3,49.3-74.7,49.3-132.4c0-29-14-55.9-27.5-82c-14-27-28.5-54.9-28.5-86c0-61.5,46.8-163.6,47.3-164.6
	c1.9-4,0.1-8.8-3.9-10.6c-1.1-0.5-2.2-0.7-3.4-0.7H117c-1.7,0-3.3,0.5-4.6,1.5c-1.2,0.8-29.4,21.2-57.8,60.8
	c-23.1,32.1-39.8,68.4-49.2,106.9C-0.2,356.6-3,380.2-3,406C-3,471.4,16.3,520,54.5,550.6z M111.9,578.9c10.4,2.8,20.9,4.8,31.6,6
	l-9,45.1h-31.9L111.9,578.9z M119.7,182h265C372.2,211,341,288.9,341,342c0,35,15.4,64.7,30.3,93.4c13.2,25.5,25.7,49.5,25.7,74.6
	c0,46-35,105-44.4,120H150.8l8.8-43.8c1.5,0.1,3,0.1,4.5,0.2c17.8,0.6,35.7-0.6,53.3-3.6l13.1,19.6c2.5,3.7,7.4,4.6,11.1,2.2
	c3.6-2.5,4.6-7.4,2.2-11l-16-24c-1.8-2.7-5.2-4.1-8.4-3.4c-0.9,0.2-94.7,20.2-154.9-28.1C30.3,510.7,13,466.2,13,406
	c0-22.1,2.5-44.2,7.6-65.7c8.4-33,23.8-59.9,46.1-80.5c55.7-51.6,136.9-45.9,137.7-45.8c0.2,0,0.4,0,0.6,0c0.2,0,23.3,0.1,45.8,7.7
	c28,9.4,42.2,25.7,42.2,48.3c0,32.1-13,43.7-25.5,54.8c-11.1,9.8-22.5,20-22.5,41.2c0,21.6,13.4,31.8,26.3,41.6
	c15.3,11.6,29.7,22.6,29.7,54.4c0,24.4-8.6,46.7-25.7,66.3c-7.6,8.8-16.5,16.5-26.3,22.7c-3.7,2.1-5.1,6.7-3.2,10.5l16,32
	c1.9,4,6.7,5.6,10.7,3.7c4-1.9,5.6-6.7,3.7-10.7c0,0,0-0.1-0.1-0.1l-12.8-25.6c8.7-6.2,16.6-13.5,23.7-21.5
	c19.6-22.4,30-49.1,30-77.3c0-39.7-20-54.9-36-67.1c-12.7-9.7-20-15.8-20-28.9c0-14.1,7.2-20.4,17.1-29.3
	c13.8-12.2,30.9-27.4,30.9-66.7c0-29.9-18.5-51.9-53.5-63.6c-23.7-7.9-47.1-8.4-50.2-8.4c-2.9-0.2-23.7-1.4-51.4,3.6
	c-40.4,7.3-68.7,23-87.3,37.4c0.2-0.3,0.4-0.5,0.5-0.8C89.9,206.3,112.9,187.3,119.7,182z M276.8,444.1
	c-6.1-24.4-17.6-29.7-27.7-34.5c-5-2.3-9.7-4.6-14.4-9.2c-6.2-6.3-13.7-11.4-21.9-14.7c4.4-6.6,6.3-14.7,5.2-22.6
	c-0.4-3.1-1.2-6.2-2.3-9.2c18.1-9.8,25.3-24.6,28.1-35.9c1.5-6.3,2.1-12.8,1.8-19.3l11-5.5c1.9-0.9,3.3-2.6,4-4.6l8-24
	c1.4-4.2-0.9-8.7-5.1-10.1c-0.8-0.3-1.7-0.4-2.5-0.4h-48c-2.7,0-5.2,1.3-6.7,3.6l-21.9,32.9c-4.8-11.1-12.8-20.5-23-27.1
	c-16.8-11.2-41.5-8.6-58.4-1c-15.9,7.1-29.5,19.2-40.4,35.9C50,317.8,41.4,342.9,37.1,373c-5.3,37.1,1.4,65.2,19.9,83.5
	c22.1,21.9,54.4,23,69.2,22.3c2.7,10.1,9.7,21.7,19.1,31c11.1,11.1,30.5,24.3,59.7,24.3c22.2,0.2,43.3-10,56.8-27.7
	C275.9,488.3,281.7,463.9,276.8,444.1z M223.3,411.7c6.7,6.7,13.5,9.8,18.9,12.4c6.6,3.1,11.5,5.4,15.3,13.3
	c-11.7,1-29.7,6.5-50.2,27c-11.1,11.1-25.9,14.4-44,10c-4.9-1.2-9.7-2.9-14.3-4.9c17.8-13.7,22-31.2,22-44.4
	c-0.1-7.1-1.1-14.2-3.2-21l29.8-6C200.4,398.3,211.7,400,223.3,411.7L223.3,411.7z M68.2,444.9c-14.7-14.6-19.8-38.1-15.3-69.8
	c4.2-29.1,17-80.5,56.6-98.2c17.9-8,34.8-5.7,43-0.3c19.9,13.3,20.4,32.6,20.4,33.3l0,0c0,4.4,3.6,8,8,8c2.7,0,5.2-1.3,6.7-3.6
	l29.6-44.4h32.6l-3.4,10.3l-13,6.5c-3.2,1.6-5,5.2-4.3,8.7c0.9,6.2,0.6,12.4-0.9,18.5c-3.3,13.3-12.1,22.9-26.2,28.5
	c-0.2,0.1-0.4,0.2-0.6,0.3c-7.7,3.4-16,5.1-24.4,5.2c-18.4,0-33.6-8.9-45.3-26.4c-2.4-3.7-7.4-4.7-11.1-2.3
	c-3.7,2.4-4.7,7.4-2.3,11.1c0,0,0,0,0,0.1c8.5,12.7,18.1,20.9,27.5,25.9l-24,10.3c-2.4,1-4.2,3.2-4.7,5.8l-8,40
	c-0.9,4.3,1.9,8.5,6.3,9.4c4.3,0.9,8.5-1.9,9.4-6.3l0,0l7.2-35.9l37.6-16.1c2.5,0.3,4.9,0.4,7.4,0.4c8.1,0,16.2-1.3,23.9-3.9
	c0.5,1.6,0.9,3.2,1.1,4.8c0.9,7-1.8,12.8-8.3,17.5l-38.4,7.7c-4.3,0.9-7.1,5.1-6.3,9.5c0.1,0.7,0.4,1.3,0.7,1.9
	c3.4,7.5,5.1,15.7,5.2,23.9c-0.2,16-8.4,28.3-24.4,36.7C123.6,463,89,465.6,68.2,444.9z M249.2,496.5c-7.7,9.8-21.6,21.5-44.2,21.5
	c-30.5,0-49.4-17.6-58.2-32.2c4,1.6,8.1,2.9,12.2,3.9c6.2,1.6,12.6,2.4,19,2.5c15.8,0,29.6-5.6,40.6-16.6
	c20.2-20.2,36.1-22.8,43.5-22.6C263.9,467.3,259.1,483.8,249.2,496.5z"/>
</svg>
