<?xml version="1.0" encoding="utf-8"?>
<!-- Generator: Adobe Illustrator 19.0.0, SVG Export Plug-In . SVG Version: 6.00 Build 0)  -->
<svg version="1.1" id="Gradient" xmlns="http://www.w3.org/2000/svg" xmlns:xlink="http://www.w3.org/1999/xlink" x="0px" y="0px"
	 viewBox="-34 203 480.1 423.1" style="enable-background:new -34 203 480.1 423.1;" xml:space="preserve">
<style type="text/css">
	.st0{fill:url(#SVGID_1_);}
</style>
<linearGradient id="SVGID_1_" gradientUnits="userSpaceOnUse" x1="341.9319" y1="1132.1552" x2="341.9319" y2="708.0504" gradientTransform="matrix(1 0 0 1 -135.9199 -505.0801)">
	<stop  offset="0" style="stop-color:#B84F97"/>
	<stop  offset="0.9138" style="stop-color:#E51D5B"/>
</linearGradient>
<path class="st0" d="M62.9,525.7c37.1,37.1,84,70.8,139.4,100.4c2.4,1.3,5.2,1.3,7.5,0c55.4-29.6,102.3-63.3,139.4-100.4
	c29.8-29.8,53.4-61.8,70-95.1c27.8-55.7,27-96,26.8-99.8c-0.1-70.7-57.5-127.9-128.2-127.8c-46.5,0.1-89.2,25.3-111.8,66
	c-34.2-61.9-112.2-84.2-174-50c-40.6,22.5-65.9,65.3-66,111.8c-0.1,3.7-1,44.1,26.8,99.8C9.5,463.9,33.1,495.9,62.9,525.7
	L62.9,525.7z M-18,331.4c0-0.1,0-0.3,0-0.4c0-61.9,50.2-112,112-112c46.3,0,87.8,28.5,104.5,71.7c1.6,4.1,6.2,6.2,10.3,4.6
	c2.1-0.8,3.8-2.5,4.6-4.6c22.3-57.7,87.1-86.5,144.8-64.2C401.5,243.2,430,284.7,430,331c0,0.1,0,0.3,0,0.4c0,0.4,1.6,38.5-25.2,92
	c-15.9,31.7-38.4,62.3-67,90.9c-35.1,35.1-79.4,67.2-131.8,95.6c-52.1-28.2-96.2-60.1-131.2-94.9c-28.6-28.4-51.1-58.9-67.1-90.5
	C-14,381.5-18.6,344.8-18,331.4L-18,331.4z M368.4,300.7c-17.3-16-42.7-22.6-68-17.6c-19.2,3.8-33.3,16.3-40.9,36
	c-2.7,7.1-4.4,14.5-5.2,22c-7.1,2.8-12.9,8-16.4,14.7c-4,7.9-4.5,16.8-3.7,24.4l-29.4-14.7l-2.8-11.2c2.6-4.7,3.9-10,3.9-15.3
	c0-8.8-3.7-17.3-10.1-23.3c-6.4-6.1-15.1-9.2-23.9-8.6c-16.2,1.2-29,14.2-29.9,30.5c-0.5,10.6,4.3,20.7,12.7,27l3.3,23.6
	c0.2,1.7,1,3.3,2.3,4.5l7.6,7.6c-5.3,2.7-10.2,6.2-14.6,10.2c-6.6-14.6-18.9-24.5-36.3-29.2c-8.3-2.1-16.9-3-25.4-2.7l-1-3
	c-4.4-13.2-18.6-20.3-31.8-15.9c-12.5,4.1-19.6,17.2-16.4,29.9l9.3,37.2c2.3,9.3,9.9,16.3,19.3,17.9l29.9,5
	c-4.3,38.8,18.4,62,19.5,63.1c14.4,14.4,37.3,22,63.4,22c13.5-0.1,27-2,40-5.6c41-11.4,70.2-36.8,78-68.1
	c6.8-27.3,22.7-32.3,41-38.1c19.9-6.3,42.5-13.4,47.1-50.8C394.7,334,380.8,312.3,368.4,300.7L368.4,300.7z M286.2,457.1
	c-6.4,25.6-31.4,46.7-66.8,56.5c-35.4,9.8-70.7,4.9-87.8-12.2c-4-4.5-7.3-9.7-9.7-15.3c-5.7-12.9-7.1-26.8-4.2-41.5
	c0.9-4.3-1.9-8.5-6.3-9.4c-0.1,0-0.2,0-0.3,0l-37.7-6.3c-3.1-0.5-5.7-2.9-6.4-6l-9.3-37.2c-1.2-4.9,1.8-9.8,6.6-11.1
	c4.6-1.2,9.4,1.4,10.9,6l3,9c1.2,3.7,4.9,5.9,8.7,5.4c8.8-0.9,17.7-0.3,26.2,1.9c16.4,4.5,25.8,14.6,28.6,30.9V459c0,4.4,3.6,8,8,8
	s8-3.6,8-8v-29.8c2.2-3.3,8.9-11.7,23-17.3c7.3,4.7,24.6,15.9,37.5,22.3c3.9,2,8.8,0.4,10.8-3.5s0.4-8.8-3.5-10.8c0,0-0.1,0-0.1-0.1
	c-13.9-7-34.6-20.5-38.5-23.1l-13.5-13.5l-3.5-24.5c-0.3-2.5-1.8-4.6-4-5.8c-5.3-3-8.4-8.6-8.1-14.7c0.4-8.1,6.8-14.6,14.9-15.2
	c8.8-0.6,16.4,6.1,17,14.9c0.2,3.7-0.8,7.4-3,10.4c-1.4,1.9-1.8,4.3-1.3,6.6l4.5,18c0.6,2.3,2.1,4.2,4.2,5.2l48,24
	c0.1,0,9.7,5.1,4,22.3c-1.4,4.2,0.9,8.7,5.1,10.1s8.7-0.9,10.1-5.1c7.1-21.2-1.6-34.3-9-39.8c-2-6.3-4.5-18.6-0.4-26.7
	c2.1-4.2,6-6.9,11.7-8.3c3.5-0.9,6-4.1,6.1-7.7c0-1.3,0.4-24.8,15.2-38.8c2.2,27.5,12,39.9,20.4,45.5c7.7,5.2,11.8,10.4,11.6,14.7
	c-0.2,3.9-4.3,8.3-10.7,11.5c-5.2,2.6-10.8,8.8-8.3,24c1.4,7.1,3.4,14,6.2,20.6C296.6,431.5,290.1,441.7,286.2,457.1L286.2,457.1z
	 M374.1,370c-3.4,27.2-17.1,31.6-36.1,37.6c-6.9,2-13.6,4.5-20.1,7.6c-5.6-15.1-4.4-20.2-4.1-21.1c11.6-5.9,18.6-14.9,19.2-24.7
	c0.5-7.2-2.4-18.2-18.7-29c-8.3-5.5-13.1-20.2-13.7-40.8c0.9-0.2,1.8-0.5,2.8-0.7c20-4,40.6,1.2,53.9,13.6
	C371.4,325.4,377.2,345.3,374.1,370z"/>
</svg>
